<mxfile host="65bd71144e">
    <diagram id="2RI6NHjcjF7giVaUjMdu" name="Page-1">
        <mxGraphModel dx="289" dy="136" grid="1" gridSize="10" guides="1" tooltips="1" connect="1" arrows="1" fold="1" page="1" pageScale="1" pageWidth="827" pageHeight="1169" math="0" shadow="0">
            <root>
                <mxCell id="0"/>
                <mxCell id="1" parent="0"/>
                <mxCell id="46" value="" style="shape=stencil(lZbdUttADIWfxrdnpNX+XlN4D2YIjYc0YUKg5e3R1mOIlkSd3vnv88pHR8c7yc3L9v55MwV6OR0PT5vf88NpO8mPKYR5v90c55MeTXI7yc3j4bj5eTy87h+W8+f7/mQ/+nV462/4s3CNUEKnAr0vV2JCan+v3C3Abt6fAxmlGCAJWnWAhsoGyIKaXSCJAUoEeyUltGyAqis4QG2IFmiMFh1AVbIltYLE14FCyFYlJgLRdSITJNolGtiRKRGq7ZzqQE4jooBtI2oFO4BUkAVK84EMsrrmBhIHKGMjUkV1VIphXCGqW5zO6W1pFggITklaQK4G0CKzs0KuaMkCGSE53lARrZlU6OB8dG+TXUFbGfyBoGFG6V8zykPjCLFcB87c/OkNWoPh8hI6MBbQofJa3UdysGtbX3FZJh36YUg1GJySeqzYkr6i53KrBeXbjFYnBjQa6wBofHozmhCHoVZZHTN1QP4HkDima09Dx0whrm7+BBKyE0yc1rQ+i43ofHRBtW4tDHHaEMYwzrym7cXn1ar2AxKvKXLteWuLSODg1ZNsYgRfUc0TWz831xQcR4GYkZweBxmBBHEmRz0x/Bm0AY6garpBofHfpgdfO47HebdbNizn98cdil5adjdy+wE=);lineShape=1;" vertex="1" parent="1">
                    <mxGeometry x="118.73853630669964" y="78.67864053109406" width="1.3592555352638431" height="1.3634252765430304" as="geometry"/>
                </mxCell>
                <mxCell id="47" value="&lt;meta charset=&quot;utf-8&quot;&gt;&lt;pre style=&quot;border-width: 0px 0px 0px 2px; border-style: solid; border-color: var(--border-tertiary); border-image: initial; box-sizing: border-box; overflow-wrap: break-word; --tw-border-spacing-x: 0; --tw-border-spacing-y: 0; --tw-translate-x: 0; --tw-translate-y: 0; --tw-rotate: 0; --tw-skew-x: 0; --tw-skew-y: 0; --tw-scale-x: 1; --tw-scale-y: 1; --tw-pan-x: ; --tw-pan-y: ; --tw-pinch-zoom: ; --tw-scroll-snap-strictness: proximity; --tw-gradient-from-position: ; --tw-gradient-via-position: ; --tw-gradient-to-position: ; --tw-ordinal: ; --tw-slashed-zero: ; --tw-numeric-figure: ; --tw-numeric-spacing: ; --tw-numeric-fraction: ; --tw-ring-inset: ; --tw-ring-offset-width: 0px; --tw-ring-offset-color: #fff; --tw-ring-color: #3b82f680; --tw-ring-offset-shadow: 0 0 #0000; --tw-ring-shadow: 0 0 #0000; --tw-shadow: 0 0 #0000; --tw-shadow-colored: 0 0 #0000; --tw-blur: ; --tw-brightness: ; --tw-contrast: ; --tw-grayscale: ; --tw-hue-rotate: ; --tw-invert: ; --tw-saturate: ; --tw-sepia: ; --tw-drop-shadow: ; --tw-backdrop-blur: ; --tw-backdrop-brightness: ; --tw-backdrop-contrast: ; --tw-backdrop-grayscale: ; --tw-backdrop-hue-rotate: ; --tw-backdrop-invert: ; --tw-backdrop-opacity: ; --tw-backdrop-saturate: ; --tw-backdrop-sepia: ; font-family: Menlo, sans-serif; font-size: 14px; margin: 1rem 0px; overflow: visible; color: var(--text-secondary); line-height: 1.25rem; padding-left: 1rem; font-style: normal; font-variant-ligatures: normal; font-variant-caps: normal; font-weight: 400; letter-spacing: normal; orphans: 2; text-align: start; text-indent: 0px; text-transform: none; widows: 2; word-spacing: 0px; -webkit-text-stroke-width: 0px; background-color: rgb(15, 15, 15); text-decoration-thickness: initial; text-decoration-style: initial; text-decoration-color: initial;&quot;&gt;intervals = [[3,4],[2,3],[1,2]]&lt;/pre&gt;" style="text;whiteSpace=wrap;html=1;" vertex="1" parent="1">
                    <mxGeometry x="110" y="70" width="310" height="80" as="geometry"/>
                </mxCell>
                <mxCell id="48" value="" style="shape=stencil(fZJLbsMwDERPo+1AIvVdp+k9AsSphbp24Lj53L52taiZ1NpRFJ80JEfx7tIezo0ifZnG4bO55ePUKn5TRLlvmzFPc6R4r3h3GsbmYxy++2M5nw9L5RJ9DdflhXvhUoSzC0X6UTJs4ek3816ALvcrwGgNrQXhIgJvE2kGkgCiRnDbQDDQQQDJwVcAG8AkgJXKfwmyIC+/IERT0QQTRX1w1aZfh0TwodICWOqhiFRbQwI52QBSRb81INlAfUDegeXSDKzfro8eWuoxjCSAOfhz4Sl3XTHx+v7ZtXOqOJ73Pw==);lineShape=1;" vertex="1" parent="1">
                    <mxGeometry x="208.13756755331565" y="193.49312790048208" width="0.8034313532576758" height="0.8034410693235136" as="geometry"/>
                </mxCell>
                <mxCell id="49" value="" style="shape=stencil(lZbdUttADIWfxrdnpNX+XlN4D2YIjYc0YUKg5e3R1mOIlkSd3vnv88pHR8c7yc3L9v55MwV6OR0PT5vf88NpO8mPKYR5v90c55MeTXI7yc3j4bj5eTy87h+W8+f7/mQ/+nV462/4s3CNUEKnAr0vV2JCan+v3C3Abt6fAxmlGCAJWnWAhsoGyIKaXSCJAUoEeyUltGyAqis4QG2IFmiMFh1AVbIltYLE14FCyFYlJgLRdSITJNolGtiRKRGq7ZzqQE4jooBtI2oFO4BUkAVK84EMsrrmBhIHKGMjUkV1VIphXCGqW5zO6W1pFggITklaQK4G0CKzs0KuaMkCGSE53lARrZlU6OB8dG+TXUFbGfyBoGFG6V8zykPjCLFcB87c/OkNWoPh8hI6MBbQofJa3UdysGtbX3FZJh36YUg1GJySeqzYkr6i53KrBeXbjFYnBjQa6wBofHozmhCHoVZZHTN1QP4HkDima09Dx0whrm7+BBKyE0yc1rQ+i43ofHRBtW4tDHHaEMYwzrym7cXn1ar2AxKvKXLteWuLSODg1ZNsYgRfUc0TWz831xQcR4GYkZweBxmBBHEmRz0x/Bm0AY6garpBofHfpgdfO47HebdbNizn98cdil5adjdy+wE=);lineShape=1;" vertex="1" parent="1">
                    <mxGeometry x="239.27907684724016" y="183.00296485541838" width="1.3592555352638431" height="1.3634252765430304" as="geometry"/>
                </mxCell>
                <mxCell id="50" value="before sorting sabse pehle make a map &amp;lt;start,index&amp;gt;" style="text;html=1;align=center;verticalAlign=middle;resizable=0;points=[];autosize=1;strokeColor=none;fillColor=none;" vertex="1" parent="1">
                    <mxGeometry x="118.74000000000001" y="154.37" width="310" height="30" as="geometry"/>
                </mxCell>
                <mxCell id="51" value="" style="shape=stencil(rVfLbttADPwaXQnucp/nNP2PAHFqo64dOE4ff1+qghqTwo5RoDdlw5E5HA65muThbf/0upsiv10v56+7H4fn636ST1OMh9N+dzlc9WmSx0keXs6X3ZfL+f30vPz9+jRHzk/fzt/nN/xccIEkzaDIv5YDplj/HHxewo+H0014plRMeCdO4/CQSIKJD506eH+MlC0gNuIyBoiQiAFIpR7HgJQpW8apURZAuVHoBqAnAjhUIbYplU7CY0BrlJoB1EY9jAG9U4gG0DIFoIMC0gZQQUoKKDalVqh3CGjVAho1IJwCuv2FHihg0t3q0IUyUHoGsAVkakBpBVQrXK/UcJWccHoScUphA+gZALSIWwBKSZu5ewA3CHATQElnDPAc1FJIaQU4HQRXqfn27kwNA6LloM1XcJVS9u1dUXs3qnYuqYEy9gNvLYpbQzaAhLu1sOeQ7lg0+ioFpLS2WvE6CEgpMBM7qSPVOx513ZeJMYnq+rtSxB7NdjDNnsIpxY3l7vSGm2Q3dfhPCFXKrTn1UAPTssZ1+v4VO60mGa05J53uMbTmdJG6lIpQAYXVVR2sh7KegMGhl4FoOSRZB+7ouuE4SKYCqpSoWwp6gtqVffMFtRyoEVO2YybkdcUM4t0sVkZotDIF29tB1rEziGdb0BDgJN7amSLYVptwtSZkyzb7vDpvRNYWX9a74qiW9u3xTmmytSTDPct+luq9GSQT1h38EY7s/o+38rvh+vDxAfByOB6X74fb//sPBj1aPjbk8Tc=);lineShape=1;" vertex="1" parent="1">
                    <mxGeometry x="434.03541210373885" y="167.4643372565415" width="20.746603508698136" height="2.650306839965491" as="geometry"/>
                </mxCell>
                <mxCell id="52" value="" style="shape=stencil(lVfLctswDPwaXTEkQBLkOU3/IzNxak9dO+O4r78vXEe2CcqbyU2isCKwWBDgJA9v66fX1cTh7XjYf1/93jwf15N8mZg3u/XqsDna0ySPkzy87A+rb4f9z93z+f316WR5evqx/3X6w58zLjKVeEJx+Pu+Qjn8X/h6tt9udjf2XChIb28AvQ9ImTh3AGZKAJArce8Rt3llEaCRKncAKdTyfUBNJK0DmJOh3ge0RNoHnRNFuQ+IIVAIHaIkCsCnVqhqB1AhATTVAVADNQY0MTUHUJIEU11LB2ht5mEZYDQ5LV15WEYwZfFbVJBrDpQHnyJIXWw+Ea1SBLzGSqFX0yk1DQCU1AEyFLjtEF3Qpo0CY3AV0fgjlmrqAXHO5b081OwBDIJmK5hhB0Qr6/z5BpBRDM0fNBY0g0xLoORYkrnOlwFxcClBfRuAnUsFBm0u5f6gaUoZlVwjcVqqpKiALv+7qQe4g2lzADQkDSEeAeCcsQbyXpA3gIQOS/tcfNAoBisgrp5WQTtYiboYMuwQBmguD4kyCNpcUueS8YYSFwZamSJKnH0eShTR+mmAdShXQNpgAWnxmdY0F+1yz9KhK2ZS3Kldidp0gNSqJu8+6GxdEeShyDy9XGYBga3d/ufmGclUgDREfaa5UkHHfSHu68HkmBCAWn8s6bywaH4h5GqOevQQr5UO0Okw+CTYqoKXkFABh3wg7amx8RX4Hv3cFqkAuYlv/WGesZZHW8rZmQsQQvFEhnm7Ze17IvEo1fzsdcnbMjPRn6EXapftP3lP+NjeHq6XkpfNdnu+09x+95cYWzpfgOTxHw==);lineShape=1;" vertex="1" parent="1">
                    <mxGeometry x="453.5804497162245" y="166.61978713580146" width="3.9005934451401405" height="5.984267860039791" as="geometry"/>
                </mxCell>
                <mxCell id="53" value="" style="shape=stencil(lVnbchsxCP0avzISCF2e0/Q/MhOn8TSNM0l6+/uy9Wi9YndPmzfXOcgCDnBQD3Lz9nj3cjxweHt/PX89/jzdvz8e5NOB+fT8eHw9vdung9we5Obh/Hr88nr+/nx/+ffL3YScPn07/5hO+HWxY9IyGXH4ffkiU8x/v/h8gT+dnhfwmKmMeCUFeC79uI5PVNo+XiqVNOCFquzjNVIYz2dKuo/PQqkN+Egc9/FFKfCADyTg/Jooi8OHsI9vkYrHCwN8phTd/VH8W/PxV8og/s3S6c63BKALrRyIhRQY1Epx/AVzIYAUWEh5TJlxSAAnaugUmw2MhQUkOVEdSS1MAq6Um2edFBhWox27MmDKgBfaqI1hTUoVXEktrM7AmJ3AldZOV5jpwsTsnW4orOYD+1+A1MjUqvehIHZbNY8+pEIFlVv25LMGgsLaqk+c2hEVFlwZfyHHXlLbHTXMHWK2KD2Xez8ho9eWGgVNqRk5dTQwtqAwzU29G1TubNk2YD8WaoFzxLpAHft8C1RxY3WN25JfAL+NfTqG1ZIfEF2FdGSfxa2APGSlMobV2KKoqAtx8AYVGBibXUFY7pEPMp+3MEjgFyQQqzdAV7L5GsdMLwi8beFLztiFRhz3ATvjU595O3jPJKEMzrc0r/ABMC/5apvIDvDa2+5/4o2V9SP3MQW2wiN/jXRlFU+Qr+IVwJQvJJEojb3C6ozB/a0xuPjgdpe9QjU86hTap9iiyAQ0ikQte7xCfGgenwBevHwxPMov+2Zt/qJ88YpvGUvy3voX+c0g/uvzE5yx6/ubggT3sfis+IwkeVrVC0PdYvlVjy9ISXVBsMA3cH72s3JSJbC+nFCzeEZYv76+FPbbrfptaFB+EG8JdiuROYAKjE0HBm8QUMXMBbWkBGrRZdUjGK5pJuKyczpixZ9Wsz5ACVWiH2OT5AHC0fRKdZpL+yW3FZF6p2vscnjboHnm2eKDMj1JstHAlCkSOGYQnPgNcH03xZ/GYtaEVwTrLs4g9Hm4HdbqBU6quDzZ1/+kwhA1sldE9guoodpu5944kmlVZJBWu52NEGTAq1cXhj1GtW9yi90O0Tuv3l3Euh6a4qWX/LyU47Fscjy6LV56599dN91LxLy8bXNJ+go+Gyi8ku00Mjod51649zgijq24QpN/uUh9r9p7nZLkzkdbVxa/keOVSKOfbViKSPParsLSmWbPWJwxQG0Ui589MUIPuEvFZcbwstL8+Q1dyPfgGOHOGH2DNLyAjIWNACExFfwbTQxwcobeR+ax1h3ag48VU+GzQOhN5wpHbyehk+vKNiTEg2/UmRp4g4v90fAKRzI5+m6Su07dIc6H3tH/CbcP1yf7h9PT0+XFf/l3/8RvX13+e0Bu/wA=);lineShape=1;" vertex="1" parent="1">
                    <mxGeometry x="474.16684268488643" y="151.46909279998073" width="9.083210060703363" height="8.44022972032516" as="geometry"/>
                </mxCell>
                <mxCell id="58" value="" style="shape=stencil(nVjLctswDPwaXzEkQVLEOW3/IzNxGk/TOOOkr78vOC5tEZRWTm+Kw5WIxy4X3PHd29P9634X3Nv76fht/+vw8P6040+7EA4vT/vT4V2fdvx5x3ePx9P+6+n44+Xh/PfrfV1Zn74ff9Y3/D7jvHPkXIUF9+f8kyM+//DlDHg+vMwAksjlbr2nnMB6TzF26wNJXl9fMk1Ttz6SeLDeUe7fP1GU9fUTt9dd9q9vABvKiaRPkI8tpEVAKsTSA4RcAAAtQR+yxhzKOiAGiqEDsL4CbImT/QJncrwOCIWKqUJofbIMiORLD5iogBi0zXxft8SUwZb8ZNOaNK2g83yi0BcuM2w9rWvog86FIohBAaXf0hRaNy4DMnkDyJRAWn2hqU+r9jssnCfhHsAUECAR972kDPzXLKut0ROoFMoAwIG4r7Q4ElA47dbSBy2BCmrvYvkgsTXLMoEcJQNIlBDj/PAFLRzYktKF+16SqSV6GXAp0wwgKAYesiQ0AaVUgI1BqIDmq5SfBgDIEgvJAICV1pykAQCC5tgIeVVvB4WJfVP3+SeQMIlVsgpADNIg/JAmoDMhD6WWduitAdywJUQ5BZQhr6i/ldRxqBwSJj1wpiGtEZWa2/vmANCuekIZvd8CaOGGtKKDupJ6AKCglUFuCBrKhnJ0+AIqnALySGoE0APnQ82n0jdFC0DtreIaRlIjFUjW8W1yNFAaPwFkIFxk5UahUY6OhID2JDcXeaNYVo4O6ork+H8AJq8bJ4QCpFgAYyXzpg56yqG0qpKZLKXWj6s20QAiJPV1uph7AUAIdUze6IyD7aomLvWkrn4GpNV7eyxWx4RGDsvpasmQLllzUj0fMrok/foNU+maz77RtQ4T4oYtdtaCbvhuJt/vf8PYJ8vlOjkAayXWpdfRBLXQ0BF6UkDLoJra74gznPj0uDUHeh3gAEA1Nfcx1BERyfwl5RcRLlAskm88nI+5oIu0SDwO0iCGOkj3AJ3UQQiTb6b/ehOAyqZdH/oqhEaM5fXSHPz1JiOBDClrjbt1kMYlWr/tmrwur082oa4RY+2mJIlZjwY3lTVjbPEoKQs3Qw5ItQyjJz71hZtRufH9yeroxv4nezjh/EgZ8+nRfrR/hnqh9188zax/0IXHR6/mbgDow/Um8PHw/Hy+SJz/394c6k/nW0f+/Bc=);lineShape=1;" vertex="1" parent="1">
                    <mxGeometry x="507.56901517319284" y="144.40549639178772" width="2.750783540915269" height="83.29863455347007" as="geometry"/>
                </mxCell>
                <mxCell id="61" value="" style="shape=stencil(lVjbUlsxDPyavGrkm2w/U/ofzBBKppQwAXr5+8rN2BzLyU55S3K8sS4raXV24eb18e5lv/P8+nY6ft//Oty/Pe7Cl533h+fH/enwpp924XYXbh6Op/230/H9+f78/eWunWyffhx/tn/4fcaJo+QayvOf8y+OScq/X76eAU+H5w0gZaphAlRyGZzXC3g6X6im6+djoGIMiuSAQUEo1QngmdrXawA12BtAoQBu8J58ngChENfrACfk5huiOg1ucM7eIEwORCmT+Ol8dhSBz6nndCTBkTA6X2cHigYN2DMCOEgRKQYYoWoAiRglTR/HGaAeAN6FZHNQ1CkBxNPHM/HyiPLlGAlJmpOWKQNa6GMTJS0mdiDL2dJCjUQmqYt+viFEaFJlSnNYPb6hBlvOrlACmVYi8OyDC8SAetV3po08QOrlwbRNw/Ag0TlQqBZQgEXZ91ocAGUjKOfMVGQBAJOkWiqpSTkCQCGJFoDasCxt240wXAOYFuM8RQzIpnFr60cmld6mN6MnA+5plCyVGDYNzYPpAZUSYoY2UTHn0WBQYuRo/x8RKVBlc76i+ldeLhGCDiSKbHOAsqyANDcMzXJAJiUKhqkBTlv1IRsftCOAhqFBymIBghqAX3zAs0TTbASAAhzKG9vh0zoGIIZSuy4AWG2F3FKeaLy18lwSh5pYA5gbHBVcnrwow4p9yMkCPMj0pwElLmIVklWnW5jTwHj05N7hxvjsA/jy+dql7EYLI13I4/5NmiMo6LqGqPbOfxmg43sOkY5Ph2PkjLgVeEPxvXyHKNHOjwra92ocskfbKmKeWxQA965zWYmxbUqFoSgJtcdko28juKEJ3NkHDXRGij734vrgNiZfseOzsQtEScu9WotQeXKP+dZlQIyFqroyMLDHWXs0aUgvJDtrU4H9qPUGI4ZVT+Mdw8/VrztBBczWamezGCa4Cwfu7WckWSiDHIds53OFXT4u4jlChZSilYW+LwSXK02HvZj/R4JHUndvrDxYdYqV2gLXTj1f5zLLfS5eG2pezHnUitYNDG/+7f/Nmgq1i6xrLZQuej4uihZNEE1AYQsQZFFaJg7DIhDdI4xec3CAiM7IRfc7QNJGukXVok736XdU/wHQDx+vxB4OT0/nN2rb5/YVmv50fv0Wbv8C);lineShape=1;" vertex="1" parent="1">
                    <mxGeometry x="529.7497600691813" y="151.2173885945669" width="7.331491967368708" height="10.219867680770419" as="geometry"/>
                </mxCell>
                <mxCell id="62" value="" style="shape=stencil(7VnJbhQxEP2auZbs8n5m+Y9IBDIiJCiE7e8pM3LTfp5+EUckbp1JvbZre7X0Kbz6cnfz+fak7svz0+PH2+/nd893p/D6pHp+uLt9Oj/b0ym8OYVX7x+fbj88PX59eHf5+/NNl+xPnx6/9Tf8uOCcFNdB6n5efvBRWv39y9uL/P35YScfxflZ3kv2x/JNYpjkq4R8LO6T1DTJJ0nuWF5VcpvkVRp5f3DiQF9xhcgXSbO+2wuumydJRPlAzJlUaoD7ayLyVXyc5DPVNztJFf0byQEdkOcLBXGN3KgNhw5A8NKUAIqoToDoJDOd7cZlBjRx7AQ3QngLoiyFeDkW8XMU5SA5EkAQnZXOlfrBVHRzXBeVEmjghdnRxTKBWCnYlWYdypZ7R6kQ5lSoSnNTzUqz42oawXIdEKXOVqpV6gvZPJ/QvBSidM+u2UotSiae9kXKbKVWRoZcB2SJcEIb8XvEYMUjIDPKiyNddoDKdIji3QIgVvJBwnol4gevkhoCPIklKwINAHUk7REgRfQDIwED6EwCLdMEMoCfSaCZZ5gfPOaDxVIhzNcrHwCCVBZLKq4igHGrAaA6N6XsbdGqFQHsBCP3kJYTiA7GGroo7UgDECqytwFYLBkZt4AAZRWoXPFDJOydrWYuAEZkJWFRNAAr68akNS5WIvlgxOgz+oFdqacLmNVKDDGrJSSGt6OOM0DzCFB2wtLrGYCRcactuJKnnjYA0oxyHQxQEMA6AQOUxdORXwnaH2MNR0LDzAodnwHoCVXUIyCzEwr2fB1ASpYxKZo1SuCApGilygGoQxgBfwRAqtTRWR8BPHja07JrgAjM5+jkY4DaEMBoxvwQMwIYGZun3XxC3QL+CIC9hqPc2nuXhTXYfNUbhYZmdcysduOEAFp23TKSdepjwdRwRmxbO34ESEv0Na61g/iOlO97t7MA2ADx1wArEBGslGmXaCUIk7pQ+rYilxMCMom+XkbBrJVSXy/UC0DZmFVwkOt2Y91JXVqBSq1k7YxfOl26cAhYRncB/H+C+D9BYFL/axOEDhraAZRdKY2Gale0lIVGRbPWTBsg9VipjdsKuZLlKLRY1dKcrRHKYPdtd1Io3xttQHiXOOredcCyCime6tAXj7CSapT6opM6p6jxs7KlV8QEyltKXQdUbLESVzr5ceNtcVfostje52cdQqNTUMq4kgp8gujLx1npvt4kShsgzEr/oefrgLRUxRGNRxtgNwdrfmnDDCO+tSZ8kQj3ifT9FtowAaVRLI6SrUDu0DnUl2WBwIubxwrdKYpcaCOTncPYWjOg/T3vMRTbJJNnVUFx3W3yjRkI+bTLs0I43L+TZzXEYTyYPHPA8kHA5FnAOSyzfovAA3kYekw+kvZo/YKzDWZH8orygbDWVip28cMS2GHt6PFG/PW3X9xelreHP5/33p/v7y9fB/f/x8+B9tPlU2J48ws=);lineShape=1;" vertex="1" parent="1">
                    <mxGeometry x="480.0627345790068" y="172.68878195104674" width="12.473869389946142" height="10.415090131858399" as="geometry"/>
                </mxCell>
                <mxCell id="63" value="" style="shape=stencil(7VrLbhw3EPyavRIku/k6285/GLAcLaJIhqy8/j7NbDgaFmfKCOBDDOi2O9u1ZL+qm825yLuv9x+/3F2i//ry/PTL3R/XTy/3F3l/ifH6eH/3fH2xTxf5cJF3n5+e735+fvrt8dPt+5ePXbJ/+vXp9/4Pf95w0WXpoOj/uj2Q4FL958lPN/mH6+NOPngnbQLE5pQBsmt+BhTnyzkgivNhBqiLQgC2gVmH6MeahwBJLs9bCsUJWUGDyzoDxClZQbOTMgHaeHAon7zz8wLJFSXy9nOd5D2Xz85HkK/EaSZfM8gLky+uepD3jcjXA3liz9RW+UAcls0cAvJK7J8t6MHBdD85utBAPhP75CXNolNiH5OvaU5LJ5nLz/61lOHyafZvciFSeV9AvgVqT2CJPBY8kwf7WEYm5jA/9rsZNLvAIqguRJecJBrS4GJNLhIbWc4EsKm6xpMMkjKrE6bDwiolUt4yHfysdLHE44A650EVnvjVxZmsm3mGMVFEsm7GxsQPajrMVNcyLThG1jUgoBCABQIkjwFYDTQyL8uWAgMo0rspXUj+BIvNZUvCAAEJr5VhhrM6nmGFOjZ5CNiq/F6epEMdcbPbUCEZXQ7kI6NUZOzuNFZyBmHtXcDy3yWwj7pC/1/nCtWERp39/8zwLX5DvkFHEWgqZ+Q7k/ckIIxvYf9W8kk8VJdme9ZGW4reMS1MkYgDQh0pstMgEEDPsowAJSqLH/y8A7AyLhXLsgEaCWojLyhT5mXWy1pjB1XHAKzT7J1FQUBgpbYNFXc6FLKlsvSa3Q9EaUssnZWuxTWypc7PUHUqjVWjBkgGAyjRwbiqzWa1aGWM3cxK4AdPAcFvHezOTKw4ty1fdp5LxNUGEKA8oXXKtFYIVx1PzuwaQetESd5+bguAxbdtAKMvjaw9BgjyjP1FYivEYZOdlVhSGwDOm/YkM6UDNkmdZ5hZ42hNd8EUSS3ppQDiu7nIUs5qzUx9PSHYCorU11OOmTWP1nSf1DyW0rJCZICKKWeAynRoWLJ6CWKOa2PHOz801vO0pehGek7qW4ISJC6yFepCrjoqwJlZi0dAZaGRDxruyMj1vwJqGGfTXeuWidIlH/WSJDSKHyevHYBRZV5mSL0CsG5vrbuNtj+9snsEsIyTZeRhgEJiyboTpBkLRwKIskypPB+r2CEb7boNWt6OGf+20esxI7Mz+nc4ZjAP/PjHDF36qu96zAiYyLVShUMbk8R9JWTzacXZaOUhbYkMbZgB2MlHMqalAegxI4+Zy769ZfPmgEel3mCwMLUOB1ZQPrENaNbSaGFLHvmxxOH7MwCYNSvtqpLH/jkp7Z+7lWYdVEe4nwEge0RHU3M2DStwm5L4RcFyig55tH7HAEVCtQxnKrzdFLzdFPyPbwrS1gO9yrPphTV2UEBebzDPchhYIiiNIE14wRkqvbuQhjXZfMxyWMQFuBHNlBrjclFgNYjVtLCMO/qaxM3BwnTekiTazSq6TfiIR5F6TZ5VNMFBW5cn+4njWLbJF95XOM0oz3jC4yWEFXV2mF1qU28CCK94LOCyTd3O5Ocg7ZWJ2N/jZZYFBGv0/RjK7OTZXCcM1t/kI91/QFqXQHnl8L0G1tV98z0I+/D6EsXn68PD7R2M/e/40oU9ur2wIR/+Bg==);lineShape=1;" vertex="1" parent="1">
                    <mxGeometry x="530.5803642592645" y="175.2254855687563" width="8.02929284080967" height="8.988434408354395" as="geometry"/>
                </mxCell>
                <mxCell id="64" value="" style="shape=stencil(7VrLchw3DPyavaJIAnzg7Dj/4SrL0VYUySXLefx9wGw4GoI7vdHRKd3kNXoHxKPRxOyJP3y7//T17pTCt5fnp1/v/jh/frk/8U+nlM6P93fP5xf768QfT/zhy9Pz3S/PT98fP1/+/fVTt+x//fb0e/+GPy+4SJU7KIW/Lh8wU43/fPLzxf7h/Lizb6Q62wfK4dg+MkmdAPYVKQNApTZ7lPLw8SogJUoyAxI1cIRUqM5niEpFjgEcieMMKBQbAGRKDoBd4kZxdkmpggeInXkOklAtwF6o5dkhYpAEyRSTt6/Qvs5ZDtifQrk4ewbxkUoizj6g72/D3Z09qFJRSs3ZRxCfHHx8cBeY/RL/kIB9JPHxr+j74yivrQdIQP2Yvc7nZWLsj/p6i6AezL4UZ/8vbxzZx9kf3PM5UZn9sQ5G5zV7F3+GDWaA7DiiUQYcYQAJcwaEBJS0AYJj0gh7wGJU5xyzQhbqRTQ3TW8jDMgzIGcqbyq7YnSP+iYN7h+AGkYmjwB1LqRaKaNKtUKew9puuMTU5sQ1G1CAW7IQzwDl0U2HtTRHSRsJ6AZjR3HjI2D+skpwh1AdyT8cacX7hFJtQ7MlD4jgCa+MvgPAwb993w7QQKpNKcTlDA1krk9tXQ4NMhfzkuo2PrkOEN9BWiGRGQ3pAgiABQyQ5w5SrEXi0hCax7A7VGwurAKHf6dSB+BR8UdRctNWrc1BLRlAF0BEecheRGqEEs9KwwkYAzCIUtrmxx4AmvpVJ+8AAsrbNKEPaxxa+kgk5eXQARFToeJ6OozcXwWUJazNdCo4QxWv8wyAhEOLV9g4gzNYu7i52yokss5CyQPQjccAWrxLARCZUa8jgYa51QAafJQSqKXdONhl7oZPTTygYZ+cAu3VB2qjc+9S3wpSbYDgXEpw8FqqXeYMgFSrMaM/g9EGYGPN/jasEdfGctEzQEQAWfg+QNroAFeuOrr2yKU4M5lVX0NPyF6rdwGEEleIXX1vd/ajxEX2AHiGSpoXAKBvq6W6PEFRHtTrHzu04H7wxKSw4670aCdLlAj1qbbayDeIxo32iDvIXF7qG0msLndcfaehoQ7pWD2AcW28DdCMJBb5jbSAzSBd5AmqvlL88sCaENVGXoVohhctWamvUAYt12967tDWEGihFPzNrN850BaNxyDfAdCV/V2uv8v1H0eu9+Jb1AmiyrRtDfaCCW2V66jNvfpGPb3scA2A6J6LX2JZWAOIkshYku4yDQHNrzWtltCQ63vWdYyiO0ob5L5bzyDWsEuN67habwFkWTEp2v0W/4TCkGZkmQ854223lfcMuLGIk23t9h9XfQZw0vjGMtFKQ9d1JQqr+O1jX4ii0hC/oo03Mi1jor3udNENZfUowwvK+zuN/8E7DfzO4Yd+p7GKwjYeeN2evb3NXThw1DeYTUU0Azn7PXRvAfSE4CdUZxWkOrPPQR+j4Alpu15vScYumVJI7jULj5l1HRC9PLIwoBu6+EWgxTlAe5c2s0fvYtm/MmG82k/+hfuN719/AYD933aKm32DKQueFnlTGQf2TvUzHpbLNdt0EuLpa/YB1OjqT4a8sp5XYHzWeApcUr31Fxu37e2P15+HfDk/PFx+XbL/f/9zEvvo8lMU/vg3);lineShape=1;" vertex="1" parent="1">
                    <mxGeometry x="484.29985140057227" y="202.46402945360524" width="9.501212926377633" height="10.252648445623391" as="geometry"/>
                </mxCell>
                <mxCell id="65" value="" style="shape=stencil(lVjbclshDPwav2oAgRDPafofmYnTeJrGmSS9/X116uIexPF68mYftKDLsgh2fPP2ePey36Xw9v56/Lr/ebh/f9zxp11Kh+fH/evh3X7t+HbHNw/H1/2X1+P35/vT/5e7xXL59e34Y5nh1wkXqOYFlMLv04dYKYa/Xz6f7J8Ozyt7oSCjfaRQLtvbcOIBUClFYF+phME+9wk27W04tNEhavWyPUcqcbAPVBqwV5Lk7APITxaK1dn/y/CmfWGqZbBnEgX2jXiMt1EG+RQrzxivZbiCAIoVYAw4aZ9iG5Ao6BiBUhWQotwdOJe4UQU1ZiEZcySBBJGiko6srlaFBFjXKDqApfVDtFYhBkGbR2MILVBE+6BRmgAJENuqJOIBCpjErRP5DIgkiNoz9RIlsHeMq3UCNLAZRL0aNYbsrqVv9hWggixppOyCzrAONl9LU9BgBZvPuxShS80UQzyggMK12pm2XgGwuynl7GOIyCWrdPAABZU2gE6FU0TvECb2ZVIUROtZPAPKNYBTYss0Uj5LU3IAyzQuhK+caSsCGF2LBygmU1UPEBQ0d+ldAQJagac6COZ36uRc1YGRSwZwQedOr0uANh5Z5iQDubdhd0Yva6IVche61Q5qSAXKlFbTSgSQDRUQIH1Gvji7hLdcKD5odCguGyj4tGa8QnPynSkjercuEitqXFkhu0oLZRSDToWzPYhc+ihArR0cD/aVVF06g9htCDu78Snn1VV7U3rpHM3JB4Hk2E5q1/QZALUzS5c7AQJoZ6zbSM4lgX1uVNJJZxh1WNYfjYVY9B5kKfubySILqEn0fa4qNdjBpTFFyr1p3A4ge82o0huobYfYN9JS4QlndxnHC2veUQhLyzfmNNtuACvk0lN47u0F9iYl9N11vj0I1O4yHSfGFJQl47ajqjEF3UDtuuFU6WqSuDh7dANl9p16hUpvw3H0R7F97Bq6CjiDAOLE7JjhndhufONZZUtGsID4hJp9BSWb3gxs7yUwf+kd+cq+oApv2AtSu635UQV8I7n4DxgRPYGW/ID57TI75RO9wQR/97QvDOd3LZ5dLgvY9WF6MjCGAv6EXs3VE4OC/H/0zem6vf34/8D1cHh6Or2Prcf9g5h9Oj2m8e0f);lineShape=1;" vertex="1" parent="1">
                    <mxGeometry x="532.1394362721677" y="205.66052720970237" width="7.530226977120465" height="8.949274692264432" as="geometry"/>
                </mxCell>
                <mxCell id="66" value="" style="shape=stencil(lVjLbhsxDPwaXwlJpF7nNP2PAHEao64dOEkff1+qhjYryjtFbhtnuCtxhuRIO757fX542e+Ce327nL/vfx0e3553/GUXwuH0vL8c3vRpx/c7vns6X/bfLuf30+P175eHhmxPP84/2xt+X+OqUEktKrg/119CoJj//fL1GnA8nNYBkfIY4Ct5FBCoxjFAKLjtgFL6ApYATyGCAE8ShoBCXrbx2VMZ8ZEC2EFyJH7AC7mwjZdCbtwxU+VtPEdiMetxZRuvr0tlwGfKYD2ab1dsQjNgIPd0LPhECSSUKbPVUAALYvJ1xCthaRsfqY75YemM3N6w6mXcsKhEAAM+UzEBhRL4giqguJGySLGCLXtbZymQAJJZq2AUUarEIEkiVqU5kQN7kNpJWsomkEM06B5GnksmAZuOjsoopIqFIbnTtARESoA4CZaHqsUHpM25954loJKATStxbgzwzsFPqDZSsp+oIMCX3t5WAQyYY+Jos1QBD4HyhE+owdjyUbwH7/dUDc1CEeTUT7LgXh1b7y8Wj/pFIDYc60wD/UvzUyweFYLm3+C1n4IBov1XJjwQhAqoWnwBAzBO+lEGQdVEOz8Uj9av6vI2/6idTv1a9YAG8mQpmisBbULnpclPJIH5NL1X8QV1lZ69BZ/6RN/QgzEsDQ/1ZvOj60HTxvobxTPgK1j/ofnMoN69nX6NL9SwqJr1cGdkYz1+GgMZ5idN9YscI0/v1x1Bv2L8n+ITWL/0Sb2uX5DPz+J1AMSZYGw/7IiJsKOw62N0PQJQQJrmpMAZow7Lio57WW/5lTqx7FAXVUs20qwnBUZuItm+XrSy0ZJ0AWNjyaWP2q0sGeeePewsoVIeW2mK0KS1WhgDYumLvK2laItHbRs6rRSbJGHsZK0f0uMLatbO4vV4gYTk7LAPDpr92F3x4s8YDjMf7DQouJlqtx7xAs2HpsONpeahhtppcXy/g2Wgp9E84dFhLljX7skjPUzndYb81kVei6S7XbiN17OkuQ9QgtEFQrXHSz3QIsu+MugrDSX0idLn7xLAUKQaYKqsNX38BeOpmytBX5iOpM3mobxm6xI0QBBxyY5xDYiYuRtfwHdFxui0agVa1YA4fQG1x3YwyTatCW1apk3jcv6wTitpoMuQFpBsAHJTn7+C+3+APnzc+D0djsfrheH6//aGUH+63i7y/V8=);lineShape=1;" vertex="1" parent="1">
                    <mxGeometry x="476.13848301315977" y="130.76320935707614" width="4.556822122796038" height="4.254290408081639" as="geometry"/>
                </mxCell>
                <mxCell id="67" value="" style="shape=stencil(lVfLbhsxDPyavRKUqOc5Tf8jQJzaqGsHjtsmf1+qCzm7lD1Gbn5wtEvOcEhN8vC2fXrdTJ7fzqfjz83f3fN5O8m3yfvdYbs57c76aZLHSR5ejqfNj9Px9+F5/v761CLbp1/HP+2E9xnnhbg2lOeP+RdHzP9/+D7H73eHZbyjKqv4SjHdjnf6t1vFe0++AEDu53WAOCoCAJFCWAGCp4wAQj6vADGQBADQkqwBKVIGgCHnnEhAUUtPsMeXQAmeX3jNAVNGJEgv+QUQqCASCslaFTWTi7cB4qkGC0AlUo4SW4CvtwFRSEwOiSIoakqUDSD2rK6zoGVd01ZVqg7Q4Ch6C2AEEAprbesR1QOAajsOAMB0K2K2r+TQEwrlIYcAylorpeEJiGnH3B3lghByoEHbI6oFxDtJJAsoGZZJTNYB6luJMC2tAMFURxkAiDkV09CjyCibXJMFMEi6FOus+pIZAfLQECpgkLQC8sA0agh9JT+oLwFpaNIiFoCsVZ2xDk3NiAc/mKvr3nYdEK4BkLzTIO87r1S6My6NCTiZNlAYy4oaqHZXWRKHXcCKT+7ZhhMLQDNLW7QY68Py/jIga8cZJ8t9KF0fQXkoa4GrSQiUDXEVDva26qxNYOGet/Yr+066fQAnc2wXPk0CPSF05SzGqAO+pA1nzmcqQHvDdGjLD/AM7hVcLFceJKzzb1jeEpBF6H6y2A49iE92L2mrDXJVG6+kw+WNbQJtgwYFdeqIphHg9NTt0K0ZUwqRgqQPss/4jM83Y4Th4uaCnbUMR227AHgT71BBEwWbL6N81RVsvrAlizUihkNw7ACGvtVuaPZ81JD+smMu6glMSOVlNhHlC8fXbOKRoL985bwbrx8+77cvu/1+vh4v/7f3Yf1pvkvL4z8=);lineShape=1;" vertex="1" parent="1">
                    <mxGeometry x="484.0186553100075" y="128.77342478724557" width="1.6571828669644224" height="8.369741106200136" as="geometry"/>
                </mxCell>
                <mxCell id="68" value="" style="shape=stencil(rVfLbhsxDPyavRKSKFHSOU3/I0Cc2qhrB47bJn9fbhdyTG01iYHeNhvO8jUc0hPfvWwfnjdTcC/n0/H75vfu8byd+MsUwu6w3Zx2Z32a+H7iu6fjafPtdPx5eFz+fn6YLeenH8df8xdeF5ynyjMouLflRfKU8983Xxf7/e5wZV8oOWsfiMvYPgTywQKYXB0DOFAUC3AkfgyITGJTiEIZAFIinyxAg5QxQDIlbwAciYGHolXNBhCEXBgDaqZaDMBRAA6qtiH19qALtbaaXwIiQfFUStHYS8toZF9sPD5QAQF558hZIvlKOUIXVfqaFpxDtjExQ6oqgG3XuOCQSsvxikiMAWyHQcmbwTAoL/KKqjVBQLCNY62bAwAtop0e5TZstVDquF1IwPQoINoqqegIykE9WICPH3no2FcoMi5S12gSVKPcmvQ+bYK6pm2Wzt6h7xeqVl88jqdS7ES48Wo4CTZf7yjjSej0y+fm8rPjHCJFVCNVjI6onhgn3YtwJo+6rJrXzY5vfRmKqvWg05n+J6CEFvFFVvUTIAfdPGKZlzVpvNs6apcERW8WINuH6tq8jvZzt3qq7lMgeusLQOsmt5wYszADKq1OmCs2DgDdhTE7gPauS+Cisv+0V3XoSsotxIE92wRKbQo4sPeWdiVCvVvNZi5w66ztA1wJq3iUtnxLvqIUgfl29Uy5La3P9StFOGUrPuhNG0G+t97MH9vrw/uB/rTb75f7/vr//UGvr5YfA3z/Bw==);lineShape=1;" vertex="1" parent="1">
                    <mxGeometry x="482.06239199174" y="132.9398631091107" width="4.309369242435924" height="0.3466276191666045" as="geometry"/>
                </mxCell>
                <mxCell id="69" value="" style="shape=stencil(7VnJUhwxDP2auaq8SbbOWf4jVYEwFQIUkO3vI2fiZiz3vBS3HHJrBr22lqfF6kN+83Tz4eHqkMLT8+P956vvx4/PN4f89pDS8e7m6vH4bE+H/O6Q31zfP159erz/evfx9PfDhy7Zn77cf+tv+HHCiZJoR6Xw8/RLFOLw+5f3J8Dt8e4cUCnmGRApVwCIVGdAJSmX5TmSyiQvVIF8KSRpkm9UgHwWSosBf96wC+j61hlgPuDLgKjEs0aJKQoAJKptAmQmBSc0CrN8adRADNjHTBIl5FMqMylqoaogxpRdCJhqBAYHqjwBNI9X7AOMlHMMVCgAi1MeCp+dgFTKkRp7G1oGACWdg1DzcNu+U5uPArcR9/2oGQlmQMkUUBgSaZmJVykDo8WINOdazJBINY7isKmE5U0jV16IAfHMhckpRAHLy2xxIAEGG49dDAIlEAKTl+bkA5Jnr7/Jg2pq8o51YURkX16oRK8/KBQmr8HJM4qX8cXLK2CcyfPsn0gF+af6ZpAogCTr8o7RxFgfmfXPFBF/lNIsb80AOnTJevNQAxo1e98csYxNbolkyfoGONGsWs8cssIh6ATxTpWNhvsAa2izDZZ3DYRZ2yidZ8VUAO9UR8/eAEIRnaDUFgCyIYYtEzdEhbXCjnC50xqcdAzATieFTcrc5MhkADSKGCCxByjghlbPDQ1YJSGR5QRAJt0mlTMAI5XYlzBzK6oxBgjqAahod4A7oQ4CXwK4KtBTBNvgcrTTFZ0gvi/0hECRrhSWkSoDfhugrQAUuOZLpQEYnaA7NsDAqS/25iVo9FJcLXDQaPV3BaNGxCfIwiVUNgwQlxQtCNB8rTQAGpEscHUOnOIZwLikKwCTL1avEpqFXw3oVJtVqltKXWpyeXaryLgSXOy7c+BY8OTWRp3b2mihjEYHu2LMbLVGzWg24TFabKNAHNPTxeFzLpX95olU+j89/5+e/+XpmUenf1nVJMxnvztiCLCi4C+0DU4jrGNUPst6uBlJfiqUMJy8f4vPVGeAeQEBclmaWoOLhcR+yOstAqSBOdEV07Nhdz8QvqkpnkaWlZw18gISbRm1eyUA+gQ/dIpVUvD+7DdyxeZcoH/zdS5neEMyj7a58JoL0IUnmX2utGeYmsYKN6MKbAVle91LKqONHEdvQaCMtq46Zr8X+YLWwOw3R2nMDJc2TY5CBWaNlQo/RsGLjhHMlepY4Iqzd+8FAFdZvHRvHnveSwAXsijQR33Jyh5QMcCNXbHiApz9ojni0mKAKB6geOFX3AkN7ixr9IvaDkBNOS5NpML9SA3+Wm4AGLgwFDgDoLni9R9R/g6wh5dvNtfH29vTJ5/z//tvPPbT6ftQfvcL);lineShape=1;" vertex="1" parent="1">
                    <mxGeometry x="489.7127312722321" y="132.51622812431881" width="3.3648885115402716" height="3.525418691815239" as="geometry"/>
                </mxCell>
                <mxCell id="70" value="" style="shape=stencil(7VjLjhpBDPwarla73z5vNv+x0rIBhcCKJa+/jyeoh2k3U9EeE+UGjAu37Srb05vw8LZ7et1uvHu7nE+ft9/3z5fdJnzYeL8/7rbn/UU/bcLjJjy8nM7bT+fT1+Pz9fvr02Q5ffpy+jb9w48rLlJ1E8i7n9cfHOX8+4ePV/PD/rgwZ0cSO/tEOa3be6ZSOntOFCoACFXpAHpEBzyESqn3ECJ5EEIslPqQY4Ixp0Q19zHrX4AYciDfHykLReAhVxt0deTCOqD49ngGVAoMAIGq7wCSyHkAiMTcA+a8rQL6LEklh46kdY0WkHAMZfAgoA4KCMaDQPJpWo0aFJAFArhagKAYuIU468FpqVFeHdUwuCgQwMUCKii1kjOJBSREVyEe0uRBDMrvkmzlCohBAWnghkeSKxTNkVwj8JoH7gVRtVUByU1B9+zT4nukUdeoM3cBxtzwFHtuJG5pWFOQ9DFEJgcKV7RMPSAw5LdkC+BCggCFnFhABTEoQMrgAWTpxpwZUJsI7wO093oLyEAPk1x6tjKm90LCC0QFQ2ty0Qehcxd1V5kHyAzglum1NJm2oYCEjlTtSFFABfzWynGyAFg5JZNYQEGVS5SGI0UUQ7TbiaZVMCCzBQRE19iSuKh0RjHEga4C9xkN2veVVrpCaiSSAQCpkamMGgXdWCud6wAAfWYa5IPkHPIgrZUuAGhjUkAJQ1qxgKRaQEb0ljtc8iit8/8tyYf0IK1ZL+mNW19gCyi4Du8D1NDkMg8IT4K2E2mPFyOooL2y2AVIhxyaKCVZD9njVTfarqGDNaEj6V7Ze9BVAHWNMuz3VTDg/zL9Fy/Tw5n++WW63nlZLGiZLrbPqCACiiEOAKYAuJFq2xRmUTMUhHaVaC4q8JFisJKbLgpA4W7XDHOvzLAxTVclZqJkWAedsnkY1ILeUexWqUMUmDs7Q0PL2Yq5aQCh9ZwVc/Mm4OGlybBCe3LY3KxVTXcr5mb15Pb6t2Ke+9I6yH+2m7CmCghSJ2Q05gwS6VubvZkj5oe2Xi7MAe+H4Yffm6NNpIYKKPbO68U/muuH203my/5wuF6ELp/bm0/96XprGh5/AQ==);lineShape=1;" vertex="1" parent="1">
                    <mxGeometry x="493.9469514626916" y="131.81649542844838" width="2.9855365415647426" height="4.004691305674112" as="geometry"/>
                </mxCell>
                <mxCell id="71" value="" style="shape=stencil(lVfbchoxDP2afdXYlm96TtP/yExIYUohQ0jb/H203TGsZTidvC22DrpLxxM/vG2fXjdTcG/n0/Hn5s/u+byd+NsUwu6w3Zx2Z/2a+HHih5fjafPjdHw/PC+/X59myfnr1/H3/A9/F5xQzjMouI/lwJNL/w6+L+L73WEl7pkK9/KBnAeAQpw6gGpgvg/Qa+k1sJ4EAMgksQNEpuDuAziQDx0gRSoVAGpzsQFypgycVgNS7QClUIoAIFZDze0vbgLUYu6dlkChAIBQ6Z2WRBlEKUu7vgAKFeCDOHKDhgRMEk95ADAIqzDFagEo03od3QAAtaQu+mIBEWmolNkCCgKMYc3kBDSQ07gOCFRMqqKYMJX2F/eckGQBEYfJZk5rA4wNDYp4C5AMANE2hBrpwNiQoalnDcgkR5EHH4CGKjc0oNqotQ26VeIENLUCfLSABPKggFQswIGWUx/S0EEZmCSXdbDuUVCumocaLQC2nM7ePABQtV5m79okVBoaVhkGE/JBhuGacLWKXUFqJIyStJW2AlRUrULB+FDayV2nh47LSMNXATmS7+fSalTd3kGZiinXCndQ8hTqEFeQiJiGuAbY1FGnQJ85XbwVcYFoZ6Wu9gISoQzLTAElDxX4EJi4dzolGFZfbSKUf0TgtFI26TXMlAhslEqhd0FJGqQz1gPVGMBiHzach1zGtU3QxB0JyICzDNQ1KnRH3JSQlggwxlte5aDtobGDq7gHxjBVb8TRFtTiLFYccTzyNpAOpLW0JK5sBwOitturOGJ3SkJsZBKa6o2hrLKKFtnX3jn/FdeP65PqZbffLy+y9b19gunR8nzjx08=);lineShape=1;" vertex="1" parent="1">
                    <mxGeometry x="499.7448513536133" y="129.20785163297649" width="1.690735344784406" height="7.067857450199887" as="geometry"/>
                </mxCell>
                <mxCell id="72" value="" style="shape=stencil(lVbZbhsxDPyafSVEHZT0nKb/ESBOvahrB47T4+9LYeGtyXQn8Ju8HoqkZnhM6eFt//S6m2J4u5xP33e/5ufLfkpfphjn4353ni96mtLjlB5eTufdt/Pp/fi8/H59Gshx+nH6OW74vdhFCnEYxfBn+SCB0vLl64I/zMcbfKeeDb5UirKNj4VaMwZZoEGqJNYgNZK0bVACxWINAgnwIEJic46BOGwbtEKVbdLUG3ijRkEMPlAA9yteisMLA3wn7jYB6gXiXcJCFcWvJAeDZybp2wYc1gRXi0p8lwvNQeo9OcRKBXtwj5SY8l0spEQVCG/Q7Awyrp1KuXoPjAyEuhVSWsW+ZVCsB6UaSk8o2RxUey1jA8sDF4qIB6Fs61mpR68q1KyDQgnhtf9Ynpk6ElKl5oszYlnkD3hcnK6jajygdhRfgs8XdC/Ft+TfExdOd+/zyYN2L7ohCVxp1UY0RIc01L3ohqxxQ3U5j8JBHtqHmZBx0vcaNE3RzoQcKAOedeq4QVgy7No614rr2gUyrZPTEVczFTSbxbfIliBxrHPSeuiqJVA8kaLdFm4mxf89eCmNvg9yZu9gEAmqU5UcfAIVxKOcuvvjtd1s4NmS3BoxiF9fI3kGCrzfzdnarhltxePwGa46uvxZVYsWNxBpuK5mKx7PG77qa8Wr4kDlMxUXDxODeO5dZz/H6+Hf7vwyHw7L6n37v9+19dOyp6fHvw==);lineShape=1;" vertex="1" parent="1">
                    <mxGeometry x="499.45155335215634" y="133.148458169653" width="3.9985824199403144" height="0.42950259222224946" as="geometry"/>
                </mxCell>
                <mxCell id="73" value="" style="shape=stencil(7VjLbhsxDPwaXwlRL4rnNP2PAHEao2kcOOnr78utIWfFXY8ToIcecluvOStyRA4pbdLV8/3N03YTw/PLYf91+3N3+3K/SZ82Me4e77eH3Ys9bdL1Jl3d7Q/bL4f998fb4++nm8lyevq2/zF94dcRl6jxBIrh9/FFqxTK3zefj/YPu8eZPQcqZQBoIFYAsO/FEcCU6nlAjIsVmDQCgFLO3qUSzgNSpZp90CmdB2RjKQ0AaZTBCiWQjrTWSq0BgDkwulQSMWCpaP9eByRzCWxcZZIwAGKGQddIWQcAM7UMAObxuEIiEWivMnpEgiLIxOzsAwrA4nMBUEL+ZGqj/6EXx7p9oeTtE9hjs2/q7BkkkaVMYWcfkL0QZ2+P4hWS5P0HdVYbxeLsBdvX5viPyJ9G6u0V8a/Eoz+RKvJHe0W95icSIkmef7YvgADEdGUEJNMy4FGzDRojzpUUlEDLPQNOusI9ydcBJgqjS5KpAoA2ak59MxVQZWrqO7KqhRiUgQH8ChXWMYfgozaEXlhi5FWFFAdR3AqNBNOkrqudeDgHYPEA1BHM4zTyOuNhHVEXjVOhgNlGtewBSAEMENXTVJFL2Ze0hSXIpbzgtZKApjMl2yhiU1Q46NI84AKt0a2Qe1Gd27nAHhBQMokfLyYAEJqJ9cUKqLXZvsbmAYpo1d6KZywJriC/06aGQMomgFtBoHwboDqhaVBdDeBTw2jANZoXADTBTB6PgDfUqJu3Jx5QMpk2Vg8o/xJgPYXHop76GOBVtP99akKJAkgmKV6YsjGNGin35Dw10tyjOjtqjC7ZbFLRrFH9LGAHG9S1PobVj2H1fx5Wq/gKKJ3gc/vlSowjReTQomKmFRAg+56TtOfUOiD4zlxKP9mvn4GtBsaYJXTJXz/HS9f/08E/9k66flOgXdhmdxFoHEmhH8JnbRAFbWnAbuDBXY0XhX9hpGq+0KyTV5BJ3HVhFjISa9Od6u3RDVJ4521N8IXTFF5DLA4LTWFSLO0bPFIt/RHYahYZYfYBbPCCz1Yh/4v9unSD5xtZK/CoE/uEP7dHt2tdRt74/ffeQF62t4fX68673cPD8bZ0/r+/HrVXx6vVdP0H);lineShape=1;" vertex="1" parent="1">
                    <mxGeometry x="527.2758227417711" y="133.88062767539216" width="3.351500133521899" height="2.8612119170212162" as="geometry"/>
                </mxCell>
                <mxCell id="74" value="" style="shape=stencil(lZbbTsMwDIafprdWYufgXHN4DyQ2VjE2NMbp7XGp0tVBddld1uZrbP+/vXR087Z7eN106N7Op+Pz5rN/PO86uu0Q+8Nuc+rPsurorqOb7fG0eTod3w+P4+/Xh2HnsHo5fgxf+Bq5UqCUgUL3PT7JCZB/n9yPwL4/zAEG7xTABJwNACGRAoqDlJYBDuCDBiKUsAxkgogaKOCNkJKHonPwzoFzy0R0EFgfwUBxGQgCJA0EIKOuhMBaCGaItAygvM4a8EDFADIULYQULnsjJA9O55ASkAXkVuoo9rKqlKqwExCBLB0YnJY6St0Mb6RSU5wDRkjsIJdrQhI3Nw2xknRJ1f7/LKu4OWvzDcKhCfh4jTXEm6zLumI+zoD6hMHexglZgGYK2A2UIrAWbrVHZW40PWqPgUBtB60MGorgmhNklBlJYIGkkxiGpTH7pEezFmJlHF8N+FRrMrmvQLSUq7pO+719QDtbowc2rDSJWvcHXztw4fuNVWVMZevfAVCPGERAwxU+1u6djEd1cC5JEDQgRxo+DX/GKkIwAoqprZCUzIgn+1Yxu2841UacxWPsn/XhJWGnHCGLy4Vj2+/3431l/r69oMij8XJDdz8=);lineShape=1;" vertex="1" parent="1">
                    <mxGeometry x="529.3345357052253" y="130.7123149310722" width="0.3165581779493537" height="0.4816302591428251" as="geometry"/>
                </mxCell>
                <mxCell id="75" value="" style="shape=stencil(7VjLbttADPwaX4l9k3tO0/8IEKcx6saBk/Tx96XqrqzlWuPmVqC9OQpHuxySQ1KbePPyePe83QT38no8fN5+292/Pm7ih00Iu6fH7XH3qr828XYTbx4Ox+2n4+Ht6f709/PdZDn9+nL4Or3h+wlXSPIECu7H6UGgLL8efDyZ73dPC3Om6jpzz8Ru3V4o1f71+oaybl/Jlc4+CsWE7Evs7JOemNftvaPQA7ICwIUUID2gMAXgsffEoQNwpABc8Mp4zxEnqlcAPUmc25M1QOyDzIU8YslTZQsoFQJS6gFMHvngiKsFJIYAxxZQAKBS9Nb+d2BWMjXn4f0RVYIMHkdAEdvEU3sH7lOIkw1BBowWSsbfTBVUcqGQrX2ElW/v72DS1Rb/uW4iFZRzodExV2Ym5wEgNyWZa1/LADAaPDnpxSVDMZpi3OecslZADPR9ycijUAVJlCJJ74OPLQ8vAnJocjsDPGUgR8U3TmZAgHErdThByIMTNC+dtywFEDjxTUAXcUiAJVE97H2YIg3iIFq6/QmaSxVdqbYmMGdrgdVQfWtLfyipdW4CDaBeMTpBrELWTAUBBh9qaTW7BhCxAJSt3qkI97xW3P6nI/rcqLjdKiD2MqNPPHJCqHgLQDVa2fZnBaB2q6QwDwCg9Bon0xomGhBLKnSD0xH1tmTb7ZQtiNZEPliAQ7SmVvOLSAd8gpE+5Q2psQKMfCsNFbPE2QLQrKcXKGwBsCDYTpMTADktVlwrFiaNa2DLEoxDHZIPT2Ln3FwELuEr1aFEkXwrwDotTZ/XWJKhgBLyQS7Ug6A46CjVO72QqrXc8GON4qIOYgEw1O8FyOC1XOlyZRiJS1tW1vqoUQHdZdCIJWHYlvAJXO1qkuYF8zJgGOIi4zHUNbGep425UV6eZ7LVSp0DBdCah7bo8WSfxyGuwJ6VlPVkT/AgDrFaJVMf0CwQQ/v3giU0AOnIZlZEjQODFjRdoNd7jTTqijpFuv6EjMcTne9z70NJMPn+1UVanAX8X6T/4kVap8NehDlC/lW/BtFGI3Sy820WOKMnO9MnbD8sMlFa3V1WirbbLaQooJqh3PN/Vo6L9sNOEuBS76z2ao8Dt3e2i3v4FcMRm8u3bw4rvoZesVxT1RXzas0Rk6EtmGdzRGS0mxQeoZLNS9emi5U09vYysKlaVXC4y1th1v0ca4L5xgEn2Hd+JL9qrj/O3+Mfdvv96XP+8v/2+70+On37j7c/AQ==);lineShape=1;" vertex="1" parent="1">
                    <mxGeometry x="532.7740530991488" y="133.57062178359178" width="2.8000909836212657" height="3.4683259861780558" as="geometry"/>
                </mxCell>
                <mxCell id="76" value="" style="shape=stencil(7VnJbhsxDP0aXwlJ1EKd0/Y/AsRpjKZx4KTb35eqocmI8jwjx6K9ORO+EUnxcZsd37w83D7vd8G9vJ6OX/Y/DnevDzv+sAvh8PSwPx1e9deOP+745v542n8+Hb893Z3/fr5tku3X1+P39oafZxx7YtdQwf06P8mBsv/z5NMZ8Hh4WgMcSRkBjmLaBgShxAMgCVUGgEAx2xNq3gb4QlVGAFMsAMDkjdGZSt0GCEkc5IujBDTK5MMoH6mEbflI1ciri4ABicJosAQSqE8d9ZcEr6CSpFG+UIrwBqxCBQeFBlmaNAIW6BX4ak0uAMBMeVSpZEpAJdZLHk/IhTwwOrKlTkoUBQA0yEajI+ZarORHgN5MdiAulIqjDXozKFDTwt3FS53eWxqlMZICefD+WHqcLQqRQy4qPe67vOvUuywv/Yre5JGDVD5aeQbEV3nDBEcBEbkSZyPv0PurZb7Kg/frfSVv5VFA+H78Sh74U+UzG3nEgRRsJlX/AHvTlNsdpIzKF2tvQfZqHrT+rNheHv0Te7Xakg+jvd5DwqhC1VBYnyALsvUQZxgSWU0YQ1qDqgCVWlobfaolPwGVClvSF1xuRINgZLGoksCtkklGlUQ6kS4XqNrDoAOqdGZsAWq2AAFubYCxfugTRIWmEltAxDYYL7VXIJWEcrCAiowu/ZqWaHU4XyjCTVZXQNCabfQpABGipgtuyshNiXiympFKydYEBTh8QhijTz1d0FUn29LWpa5seclN0RfQPeTe3KwAKHHrxVmVtJSCTKzv48loh3pCdeIE8Ogeam891l66QrmJ1AXE9yqa11eNSSpTbFxJNHECZHTC1DHUpZveAvgpviHliqXcVVZr5ztlmopuIvW8sk5NmBFxTn6YpO8DtHbfDAAVGq3tvp+KkIAT8tS7aeFjEH452PTanqDuQbPrGBvazyHOtfZqvGptBmD/qVVw9FJg2D3oTCJzQwPCVTt0Q7nYy9j/CWD3T04A0/v/qgmA7T7Lw+yboiU9nphV3uxedCTPgGCqUJ6GfpR72wwzeigG2No2ipk0pE0Z4iTbmNAZIgEAy7RWKBTQtibYCiURhmlIdlsjBZY0L30luKofKLH4aTSsrlfqjaWcCTwReECw16ZTUASRrcQ3719myw15k6iL9P3TZYMtkUuE/R33mFmCAndGZVocp37pl/UJdpmloy4ad9oWcgQk6dVtawtpxk6dvjNQKUivLSsAqmbMNuoUgDavWt99tjag/Mhq9JhfsoMFWQFxjKMc4JyqABYLQAsGBRgbMsMBTI0uxQIYUK11QckC0IKaU1+0rgCojHC0HXADgLqmAD/ZgIKvhUacTkAL6nDBSxl5KdidefsugoLP29lcAR4Z7W0Xr6GBKPr+z03XAfrj7evW/eHx8fxxbP1/+zVMH52/pPHH3w==);lineShape=1;" vertex="1" parent="1">
                    <mxGeometry x="537.7975810642779" y="129.4449507943626" width="3.3741846718838633" height="8.14134800253438" as="geometry"/>
                </mxCell>
                <mxCell id="77" value="" style="shape=stencil(lVrZchw3DPwavaJ4H8+O8x+ushypolguWc7x92lmw/GyOdsqva1WAAfE0Whg9i5++P7w6dv9XXDfX1+ef7//6/Hz68Nd/OUuhMevD/cvj6/4dBc/3sUPX55f7n97ef7x9fPl72+fhuT49Mfzn+OEvy96zpwbSsH9c/midwvlv29+vcg/PX69kvdW4irf5gmn8tFiWOWLJSGfLJB8tiLk8yafrPTb8sVCW+Wj1XBbvlr0q3yw2m7LN4t0vrcm7O+WSN5Z88L/zvIagNatqYB5y2VVaNaTUAjT4VcKTrjIRyvrHVo1l4VCmi48FIo5dYdiZY1yS9arUIDF5KVoXbm1W6yrAuIsTELhVDLJz8icKwTzZJIzLzIVpVPW1KtNm5StroGrVdYyktWtqVGPI84VkGrrHWqatzqvfiT/GukaLIvAxcSBq96cyNa4FXRBSYlLx8b1UKo1YVLylvKqUGTg0pFqh0Ka+XuugPPoCdGcAJnUGJUKkk9UXHbbHdx09LkCwrS6NcNv4g4ZNb2alKtsDLnMCj4U8sTOcwUYsKZ3jjMdzxX6RNJDIVgQXoITKfngt6yaSeAnIDKqWyER/s+cQ6HMUJ4r5NktD4Uo+w+S2a9uRf56ETiUCymMChFeQkGGtYBilg2lggOsl45RRhooRD0uoikqkyoDWTiq/FwBBbQ+AcQgKZMAKusdwFSKQA2AO3VRNADVstA+Cj3BS/RugbuoP4w8V4iTKBwKVcL9aLKrl9CIVU03JMJ6abT6pC5drK64BDKhmACYRSEFP7+5pcAmOVlxUGjrE7okM8MiatPTa7fkiSEWa6I+Ie8JiSfS3pJ3hEkSkhAC6ulRlj/k80p83BwJbp7fSD5p/1DAnATttjFo0CrhH/DxVEhesVvMBzTxOFkDmFfqdr5Ax16Z27rJBs7l+zzup7zKZ8g3llcoAfnO9iuQgHxk/3cl35jseFnxY14MJK/YF+a/yOer/ME8R/3vDXmEx73DHgxPkc9/A+E8x0v5c9Tje+IF+bLVo7K/cudDvqnz216/Mp9hbiV5WS9hP/+NenTb+are615fEk/ajg8yfzp3MI2H3m0rGg2471YYFhE/kx0A8kTEdYcZCLFWsO5gA+FWe3SHRATqKl8lH4U88dGuEQjHEaKgBDSk00wKkiJvXHjwAA1SpB0gR9sHEC01nqGL5Z3KaVhMO1lUl/bcB0BHs1I4cOSK8Epm1i2szAaJqkoZUERQHZJc9gEb+1r7SD211AHhLSu4YPAo6g6J0R2jjVpMgeUTncPwlNQshH5P1axJO4antuZS1EMsxjOaI8aIqYanxKsvDLFqyVkDc5AxJqt5bltLj0FcKGDqpZrGqF9EtpbGNCoHPblvvC7rFWQpc+dztRBRnbmkmf1XKxc56vvtDk12hrz1qqKbOQxI6xPwTDUm44phLdESJZ2C1/flmsKlscIhk8rsR+fLtbo9Ad+obVzmMRnZlZVCnOddLTmVW1NgDoMKKeoJ4BQ0lKYJnudb0c4ta1S58FJEN6BFbZVLHaAQm3SU1LlC3jbsYFYiNeK2rhg7FfWExFSvBcm1Ab3ErIDnTq2zPXsJHUNBJbqB316NqMCBu/BrhaoVtqX/aJPCpLA1xXYQtHOFzA0Frd4pkzY2A4WuXlzECe6Hgp94fq6wrbPHGKHe1mxbAjAo9ZZgTEWkkGR6+43NjM2BeqdVeWEO2qjepfjMS/8xeyuT0pxcDoUuX9b6baM4ZgP1Ii8ytYeCmlZBnPv2BIVL4/3optAV52MiMOQVmbGwVsPVvHXegHhf9sYDIs+3Q16l6papXSfeBNHrEAgHubnBvY6xsN/xLDOSSJ7/vl8gvC2PDz9/7vDl8enp8muJ6//zzyPw1eWnFfHjvw==);lineShape=1;" vertex="1" parent="1">
                    <mxGeometry x="509.9965040410806" y="127.57143460504125" width="1.6825435308891283" height="17.954905813957225" as="geometry"/>
                </mxCell>
                <mxCell id="78" value="now u can sort the array (always on the basis of start( by default bhi pehle element se hi hoga ))" style="text;html=1;align=center;verticalAlign=middle;resizable=0;points=[];autosize=1;strokeColor=none;fillColor=none;" vertex="1" parent="1">
                    <mxGeometry x="121.25000000000001" y="330" width="530" height="30" as="geometry"/>
                </mxCell>
                <mxCell id="79" value="" style="shape=stencil(lZZNctswDIVPoy2GIAmQXKfpPTITp/bUtTOO0za3D1RVrQjJL5MdTeMTwYc/DunuZf/wvBtieLlezt93vw6P1/2QvgwxHk773eVwtdWQ7od093S+7L5dzq+nx+n388NoOa5+nH+OX/g9cSIkOlIxvE07kaL82fg62R8Pp4W9Cmnt7NmAeBsomST3BygJAhqJdEBSasClKhRCB+Q6n7kJtODvoIEaApRy64AilPU2wCF4n1qhUsERlaoDKmUECHEvU2vEDGRqlJMHFAEW2OyBhkOdemChw3Y2qU8OO6KCWEvzoTPgb2y2gTwHaqFrA6ETXslUKYE7iOUO+1ALcinODvwDLMHRCYXSCkAuaSJ1sgrVAiLHxOoBTbBIOa4AkBtVSdvKJVRziUL1l47gDqa6sgdQLo2p5iJdcN9oc0UuUgM1S3NAowdQBTUmWdUoajQ1U1l1ASRrKb4xfVijjUJZtQGQG8pU2QMKfLIZ1FZFzagLROLidRXgktWo766FKgjEp4FsuvaRK7iCcvAqmW4MgGSDtFfJxlwBssbq20Yqs27bQKTUu2SjuoLUsNHvZpDtFACspmKc0/eGObunw7yx7Q7VvsXw/LbZjrH/OlNA1U+lFyfALs9CKTn7CLyx091kM7GQvUW3eHsgfZL5dgt74H9mit6fBF4LWan4+yqes8FHi1FF5rU9/P4nH7Yf29vi/yv66XA8To/w5f/+1W1b04s93b8D);lineShape=1;" vertex="1" parent="1">
                    <mxGeometry x="111.27397775101122" y="162.87063111369753" width="1.180087227223859" height="13.187968440179377" as="geometry"/>
                </mxCell>
                <mxCell id="80" value="" style="shape=stencil(fZJLbsMwDERPo+1AIvVdp+k9AsSphbp24Lj53L52taiZ1NpRFJ80JEfx7tIezo0ifZnG4bO55ePUKn5TRLlvmzFPc6R4r3h3GsbmYxy++2M5nw9L5RJ9DdflhXvhUoSzC0X6UTJs4ek3816ALvcrwGgNrQXhIgJvE2kGkgCiRnDbQDDQQQDJwVcAG8AkgJXKfwmyIC+/IERT0QQTRX1w1aZfh0TwodICWOqhiFRbQwI52QBSRb81INlAfUDegeXSDKzfro8eWuoxjCSAOfhz4Sl3XTHx+v7ZtXOqOJ73Pw==);lineShape=1;" vertex="1" parent="1">
                    <mxGeometry x="118.03115679296945" y="169.63559932738463" width="0.8493417163009715" height="0.8493519875705715" as="geometry"/>
                </mxCell>
                <mxCell id="81" value="" style="shape=stencil(7VnbUhsxDP2avGpsy/Llmbb/wQyhZEoJE+jt7ys342Utbw5l2kfewiLFupxzJG92fPV0d/243wX39Hw6ftn/ONw83+34wy6Ew8Pd/nR41k87/rjjq9vjaf/5dPz2cHP++/G6WbZPX4/f2zf8PPv5St43r+B+nZ8Eyvznwaez/f3hYWUfKsXR3lOsl+1ZKMTB3pGEy/bRU/DG3jlgnylmY59BPMKU3WDP/cBt+0I1DfbLg0375EnG7/eJXAYOgXg8QCNKAk/IY8bsqaCQtOJ1cIhaU9AD0ZqOPYuaNMhBFsx0B/2KBKoaE/kx6aRPIoBRoTLmkLVvoEpakzqGlCsxOCEIuTHpEimDKilzrEPtWW07MMUwOFSGSVcKxj5RQI2mKqO9BgS4rCV31j4hXPRoV/YVdbmfvlDBYTJrOYI9oBTQM/LZ2gsAhe8IWNk70ABHqYz2hRjwwE0NyyQg/qUaqwYjyC20XeyFCow/mPgjVSCOKp2TfUAUsNqrgEb5KqBNvvoNANAaEE8UiwBxCukynlBK1/ttxEU7DtTBAwhF7uNrcchwYDZtjNaBQVFV343UqYMHVc2OokwOoEqqhGE+AeSgMKveOjhwguI+TFXyAHmNWFNIiArKXJ4ah7jfpMQM8trn4ja43UxP91pM2fDTQ37WaYTUQAWdUMiNktoYBxhUJ0KoQ0UUFYqTBiCNbBIxnZCRA09jZ3my7RBsq/UJBJPvU2PVB0SI5jAKmWIDLTxzSGVZUP4yacU37EPsKa5lA5VVrBg3jiJSp74orx0wR834UQdBZa0WrVoltLQ1AnnbhwBy2OYoLNMkA20GoUZMQqPNh1lPUqbNhyFNYqkOaO1pcmwclKNIBd7q8LIrrx0AR3UGSbYOiHJ67fFiHdByqxc3nk6Ad4zYobPalhhfVcVAI8GFPuRp4Va5RftnshcrBQuSvveN/n2j/9eNfiLN/9zoo315ofJbQfzFTua2bqN4lONmbkYo163DZki5TrpLJGbzokAnKb4yuHFIpYqFyNkrQ2K4Pc9vR0TIgaRlglHM8BajlxIjplxfU19DZF5edF2U67HTipWI70mm077ALU98j3hx4I7G7bKKJX/p96DtRicSgww4+FnJZu5hUKzDPDPh0ulVCkex8w7iSAtoEqh4PGXbgtrl4NI4s7ftvmdcsjfqXrAYCeVkGoBu/2ovY4NTr9gl+2R4Bt+8qn0d449UUDyp4+XFHm1dWn/zrpyhdPlix3GAw+Ct7/pft9cPLz8s3B7u78+/S6z/b3+I0EfnHzH4428=);lineShape=1;" vertex="1" parent="1">
                    <mxGeometry x="110.1901995793379" y="338.42421561116" width="10.536199963562208" height="12.218613880891683" as="geometry"/>
                </mxCell>
                <mxCell id="82" value="" style="shape=stencil(lZbdUttADIWfxrdnpNX+XlN4D2YIjYc0YUKg5e3R1mOIlkSd3vnv88pHR8c7yc3L9v55MwV6OR0PT5vf88NpO8mPKYR5v90c55MeTXI7yc3j4bj5eTy87h+W8+f7/mQ/+nV462/4s3CNUEKnAr0vV2JCan+v3C3Abt6fAxmlGCAJWnWAhsoGyIKaXSCJAUoEeyUltGyAqis4QG2IFmiMFh1AVbIltYLE14FCyFYlJgLRdSITJNolGtiRKRGq7ZzqQE4jooBtI2oFO4BUkAVK84EMsrrmBhIHKGMjUkV1VIphXCGqW5zO6W1pFggITklaQK4G0CKzs0KuaMkCGSE53lARrZlU6OB8dG+TXUFbGfyBoGFG6V8zykPjCLFcB87c/OkNWoPh8hI6MBbQofJa3UdysGtbX3FZJh36YUg1GJySeqzYkr6i53KrBeXbjFYnBjQa6wBofHozmhCHoVZZHTN1QP4HkDima09Dx0whrm7+BBKyE0yc1rQ+i43ofHRBtW4tDHHaEMYwzrym7cXn1ar2AxKvKXLteWuLSODg1ZNsYgRfUc0TWz831xQcR4GYkZweBxmBBHEmRz0x/Bm0AY6garpBofHfpgdfO47HebdbNizn98cdil5adjdy+wE=);lineShape=1;" vertex="1" parent="1">
                    <mxGeometry x="121.34503804654673" y="343.11742696546014" width="1.4369272801360629" height="1.4413352923454892" as="geometry"/>
                </mxCell>
                <mxCell id="83" value="&lt;pre style=&quot;border-width: 0px 0px 0px 2px; border-style: solid; border-color: var(--border-tertiary); border-image: initial; box-sizing: border-box; overflow-wrap: break-word; --tw-border-spacing-x: 0; --tw-border-spacing-y: 0; --tw-translate-x: 0; --tw-translate-y: 0; --tw-rotate: 0; --tw-skew-x: 0; --tw-skew-y: 0; --tw-scale-x: 1; --tw-scale-y: 1; --tw-pan-x: ; --tw-pan-y: ; --tw-pinch-zoom: ; --tw-scroll-snap-strictness: proximity; --tw-gradient-from-position: ; --tw-gradient-via-position: ; --tw-gradient-to-position: ; --tw-ordinal: ; --tw-slashed-zero: ; --tw-numeric-figure: ; --tw-numeric-spacing: ; --tw-numeric-fraction: ; --tw-ring-inset: ; --tw-ring-offset-width: 0px; --tw-ring-offset-color: #fff; --tw-ring-color: #3b82f680; --tw-ring-offset-shadow: 0 0 #0000; --tw-ring-shadow: 0 0 #0000; --tw-shadow: 0 0 #0000; --tw-shadow-colored: 0 0 #0000; --tw-blur: ; --tw-brightness: ; --tw-contrast: ; --tw-grayscale: ; --tw-hue-rotate: ; --tw-invert: ; --tw-saturate: ; --tw-sepia: ; --tw-drop-shadow: ; --tw-backdrop-blur: ; --tw-backdrop-brightness: ; --tw-backdrop-contrast: ; --tw-backdrop-grayscale: ; --tw-backdrop-hue-rotate: ; --tw-backdrop-invert: ; --tw-backdrop-opacity: ; --tw-backdrop-saturate: ; --tw-backdrop-sepia: ; font-family: Menlo, sans-serif; font-size: 14px; margin: 1rem 0px; overflow: visible; color: var(--text-secondary); line-height: 1.25rem; padding-left: 1rem; font-style: normal; font-variant-ligatures: normal; font-variant-caps: normal; font-weight: 400; letter-spacing: normal; orphans: 2; text-align: start; text-indent: 0px; text-transform: none; widows: 2; word-spacing: 0px; -webkit-text-stroke-width: 0px; background-color: rgb(15, 15, 15); text-decoration-thickness: initial; text-decoration-style: initial; text-decoration-color: initial;&quot;&gt;intervals = [[1,2],[2,3],[3,4]]&lt;/pre&gt;" style="text;whiteSpace=wrap;html=1;" vertex="1" parent="1">
                    <mxGeometry x="121.25" y="360" width="310" height="80" as="geometry"/>
                </mxCell>
                <mxCell id="90" value="" style="shape=stencil(lVhJchsxDHzNXFEkwfXsOP9wleVIFcVyycr2+4BRURaBUdu+STNoEksDbM7Cd6/bh5fNEtzr6Xj4vvm9ezxtF/6yhLB73m6Ou5P8Wvh+4bunw3Hz7Xj4+fx4/v/y0C37rx+HX32FP2ecoxQ7KLi/5wc+Um7/n3w92+93z1f2gZqb7Bv5etvcO8o8r0+cwfKeXJvsHTl3256ZfJjsE1XgPtex3MUfP1ZYBcRAXgVQyBUASDriEMcSq4DkqJYJwJkacCkx8QyIlaoHAAnRz0lqVBKIIVJKEyBXisAlTpTmHYo8AbwIWde5BgqISEVnqVbKIGgv6811qBFSVZhTogYUxCWmOnOpphHVLS7lpgEMAClQZA0ooA45kDOABtha/CDzBZAHWVYBjSmaoBvo6GaoITsw2qGYHQoxmAGtrlCjRgAQ9s+A5qiAGLxzemy0MDa9tYWaqy1SQz5JgylAhj0qr+ucV1kCTTJxoAYNaKgQhq4SlUM7mGHfowJ57XXKM6BQAGkVJiRVOTxnhGu1zgAeS3wU4CmCOliXahul/GDQsgRin02rOIlisIUTADpFOzXMDpBLhnwCaLhHFb0lDajSKw3k4HBd71GP8mrHQMQ+mUEjefDAJzvK5EkBWsAOS9kTDXw7jnuPoqA/C7AnxDtjo59BwewAGqKfcl4DkBbo52jUgIRP6lw0AJ0QogVslhpiXzE62mHlKsrYmyAiiNppIdpLCZW6nkse1q3qHJVMGSsyNwdQHDEgd8jao8wwYo6aSakMjbYOaFpVirhm0NFctNCNfgzbdYC5/7AbOnM9aNEucwxSSHgDCrrf5EaGRoC8DlkDGBVOQlQAmYSYqrXpGBrSJlTnrMq1DqnQOs7wi32AIZch5C/2cg0E/oho9to+AB6ZjPZrL/A/jPvalT2qsR/n/VV+kE5yWjF0DoFWdoYRFfpvTs63cXbLfuaDF30BR9fnPjK8by8/3r5oPO32+/MHkev3+guIPDp/PeH7fw==);lineShape=1;" vertex="1" parent="1">
                    <mxGeometry x="109.99902319264854" y="448.65251537795154" width="12.589913807402375" height="12.699764861363194" as="geometry"/>
                </mxCell>
                <mxCell id="91" value="" style="shape=stencil(fZJLbsMwDERPo+1AIvVdp+k9AsSphbp24Lj53L52taiZ1NpRFJ80JEfx7tIezo0ifZnG4bO55ePUKn5TRLlvmzFPc6R4r3h3GsbmYxy++2M5nw9L5RJ9DdflhXvhUoSzC0X6UTJs4ek3816ALvcrwGgNrQXhIgJvE2kGkgCiRnDbQDDQQQDJwVcAG8AkgJXKfwmyIC+/IERT0QQTRX1w1aZfh0TwodICWOqhiFRbQwI52QBSRb81INlAfUDegeXSDKzfro8eWuoxjCSAOfhz4Sl3XTHx+v7ZtXOqOJ73Pw==);lineShape=1;" vertex="1" parent="1">
                    <mxGeometry x="129.24607631878516" y="453.6728473120527" width="1.2924765248058263" height="1.2924921549986959" as="geometry"/>
                </mxCell>
                <mxCell id="92" value="ek array bhi banana hoga ( jisme bas start hoga ) | and issi array par binary search lagega, intervals wale par nahi" style="text;html=1;align=center;verticalAlign=middle;resizable=0;points=[];autosize=1;strokeColor=none;fillColor=none;" vertex="1" parent="1">
                    <mxGeometry x="122.59" y="440" width="630" height="30" as="geometry"/>
                </mxCell>
                <mxCell id="93" value="&lt;pre style=&quot;border-color: var(--border-tertiary); color: var(--text-secondary); font-style: normal; font-variant-ligatures: normal; font-variant-caps: normal; font-weight: 400; letter-spacing: normal; orphans: 2; text-indent: 0px; text-transform: none; widows: 2; word-spacing: 0px; -webkit-text-stroke-width: 0px; text-decoration-thickness: initial; text-decoration-style: initial; text-decoration-color: initial; border-width: 0px 0px 0px 2px; border-style: solid; border-image: initial; box-sizing: border-box; overflow-wrap: break-word; --tw-border-spacing-x: 0; --tw-border-spacing-y: 0; --tw-translate-x: 0; --tw-translate-y: 0; --tw-rotate: 0; --tw-skew-x: 0; --tw-skew-y: 0; --tw-scale-x: 1; --tw-scale-y: 1; --tw-pan-x: ; --tw-pan-y: ; --tw-pinch-zoom: ; --tw-scroll-snap-strictness: proximity; --tw-gradient-from-position: ; --tw-gradient-via-position: ; --tw-gradient-to-position: ; --tw-ordinal: ; --tw-slashed-zero: ; --tw-numeric-figure: ; --tw-numeric-spacing: ; --tw-numeric-fraction: ; --tw-ring-inset: ; --tw-ring-offset-width: 0px; --tw-ring-offset-color: #fff; --tw-ring-color: #3b82f680; --tw-ring-offset-shadow: 0 0 #0000; --tw-ring-shadow: 0 0 #0000; --tw-shadow: 0 0 #0000; --tw-shadow-colored: 0 0 #0000; --tw-blur: ; --tw-brightness: ; --tw-contrast: ; --tw-grayscale: ; --tw-hue-rotate: ; --tw-invert: ; --tw-saturate: ; --tw-sepia: ; --tw-drop-shadow: ; --tw-backdrop-blur: ; --tw-backdrop-brightness: ; --tw-backdrop-contrast: ; --tw-backdrop-grayscale: ; --tw-backdrop-hue-rotate: ; --tw-backdrop-invert: ; --tw-backdrop-opacity: ; --tw-backdrop-saturate: ; --tw-backdrop-sepia: ; font-family: Menlo, sans-serif; font-size: 14px; margin: 1rem 0px; overflow: visible; line-height: 1.25rem; padding-left: 1rem; text-align: start; background-color: rgb(15, 15, 15);&quot;&gt;array = [ 1, 2, 3 ]&lt;/pre&gt;" style="text;whiteSpace=wrap;html=1;" vertex="1" parent="1">
                    <mxGeometry x="120.73" y="461.34999999999997" width="218.73" height="53.66" as="geometry"/>
                </mxCell>
                <mxCell id="94" value="" style="shape=stencil(rVjZctswDPwav2JIgOdzmv5HZuLUnqZ2xnGvvy9UhaoIWtt0pm+yvCRxLBeAdnL3enh42e/YvV4v58/778fH62EnH3bMx9Nhfzle9Wkn9zu5ezpf9p8u56+nx/n3y8OEnJ6+nL9NO/yY10kkSdMqdj/nN44C/37xccY/H09rfKUYDP5tg5v4ECmzwfuyjY9MMRq8A/sn3U4s3gF8oJyt/QLwldja87bBTXwWCr7D+7bBbXym0NvP0N8SSEqH1xfAnqrmug6fqQB7aiTu7fFMARhUC6U+wb6QC9sLvFsytLisJAQ50yMMJ4Qh6Wqi1JNactvi9oLQDFiiypQATaun2psUNK6AR0UN6E2K6rSHiXZ9ImKlCqKUC0lvUtJcghOyo9qfoG8KWJD0bvbcy4kcIF8M9vIUB9mnamFOKNgHzauRr1Io1+0FrEHs9UtTmQGXWJqLywLNDDDJZ0pmgWog8sG6UCsVEFXNgrmhDmueb8evDwA3VHlRLB7VhKViLPgCNVKtNftnqhjvLN6BHDtig0/E0N9kKBEpgP1V0Y39od2kjYS5ZPEJxJOpVIuPwB6hNOBRfpeKsfJXIL5kG08HbnEkzxZfgP2KN/zM8EqGprQrvqH4hCa0Kz4zEHexFU3xiM/cVHOFr5A/4/1C/PFNAld45K+zIqp4pFjaQmUbT9Sz3LqPAu3xw32M0J5g7svSRG7Ex0WLR/rgW4VY38f/iU8UjEEOK7qeYMpehf0Kl6HsaR+JKK2Ftc+x9hcB1Iwg1gct3agjir79vWoOPFKJaru67FthuN1+5NZXrhqchBocaa39qoXK4ARtxpNZEGA3oTExPkQ8Dk1dXe9DCLjfT1bcRXMPLsPU//TqJYE88EG5GXpqMI6SNkxGf1UxEb2nE3qnJwkBBUfJXPoFeqXQlDZNRaYnEijx2ixX20RBjck6DxgRgzUwlaGTbS+25lIzgRSYtXHuzbCGjHN1hjkb53atycDf8bvAMvBsCZJRMMUDPVISR4tH+iVKSTv3eoz3RlygtsjAhwh7WMUzGzwDvinejH8B1tgRLy0h77SH8ZAy+LtMwO+Mp4fj7pgvB+fpkQ8qxSie//qd6694ffjzUe3p+Pw8f5Nb/28/wumr+QOe3P8C);lineShape=1;" vertex="1" parent="1">
                    <mxGeometry x="108.16566269578254" y="458.6786581301252" width="10.126191295242137" height="9.593536754318759" as="geometry"/>
                </mxCell>
                <mxCell id="95" value="" style="shape=stencil(rVfLctswDPwaXTHgmzyn6X9kJk6tqWtnHKdt/j5kVckBaK2amd4kEkuCiwUIDu7uZf/wvBssv1zOp++7X+PjZT+4L4O143G/O4+X+jW4+8HdPZ3Ou2/n0+vxcfp/fmiW7evH6Wdb4feEY7LcQJbfpoFAOf8Z+DqZH8bjB3NHNghzR5zWzROxF+Zm3u6muVlWm+2ZGNjX5bJV64cCvLfknbCPFMO6vfdkJDvGU47rgBCJpUOVTw92iIlClIQm8ojRTFxkwJgc4ChHyhIQHXkQ4lKn5RlShFEr9QxGAHImC1gqhYqktS5hPAYEDUAsNUDRgAyUYXhR2oLI5BBN/RYZpk4DyFDXEecwwGhABIeo0zloQLEQkLLUN+OMa4jOp40tYudTxDRF7mjCO4TUBQKLQ+VcC/UGQNLU1LRxBqsBHmdETBqwkRFJVtYS5xxZ1YbpAFh9uXOJN7LaaYDbyOqO1gQAt5PUAm3cRvxV8KpT6tiFDE46fexFLv9KbIGXSpvuMqJgl1LnUvmc/JbK8J8AVQqqDDDWqyMn9ZoKMQhcu+ckSzFC+bWbVCZpcGTAGdpdLXfwDOtGCFpLFhea2m+wrEwmzWm72tAoacyVZ7Vhkqx62DC1hkymaB0AUUu6f/OwN+liXBsNUJJ47iquh0U1spobbQ5853n2ao7KHevWEN/+rCObYaCquVPmFsSJ59RYkgVeyl1RrMqGvHerY95ZN9kJiL5jJpKHqyveIxm4uopqmC+dNc185jm0aV4/ri+vp/FwmB5uH+f1S60OTa88d/8O);lineShape=1;" vertex="1" parent="1">
                    <mxGeometry x="320.54577186631786" y="493.0049538074767" width="99.17872541607814" height="14.059724182139243" as="geometry"/>
                </mxCell>
                <mxCell id="96" value="" style="shape=stencil(lVjZUtxADPyafVXNPdIzIf9BFUvYCmGphVx/HzlbYyzZboo3Y9Q7OlotjQ/55vXx7uV4SOH17XL+fvx9un97POQvh5ROz4/Hy+lNnw759pBvHs6X47fL+efz/fXvl7vJcnr6cf41/cKfK04KtTShUvh7fZOI2/8XX6/2T6fnhT0L1WbsO5W6b9+FEhv7mKiBA3qg2i2gUer7gBao2RNSoJL2ATVQFAvQJOR9QBbqxQIYApKQBAPIiXIEgFXQuVIDadUkio0hM1UBdaOUjX0JxAUkiZKNoGTqIAKhEK19pwCKELPn3VQWUOYpRbYItYw3e0Uo1qWqdQQnaJmzJVKrlFGO1GObpB4pAIBSVaxLvREH0AzRU5WVSCAGDhQcoMO0MhNblyRSAQARipZJojGAZlBAc4BOCXBbAbICdAZcChq1LYQwZXwEZw8QRG8lk2Wfvsmg3/T3uHtAB7qngMgeIAgwC+8SgFxqXsbe07AH8KVW9Qd0lUo9eABqCAWU7utQUAwKcFnqJEBnJpdWZMqATFPQ7oSGT5hbeAFoiEudavSAgqmRigfAOvCqg7T2KAbZSGtEJyhzqgc0ANju0YiiFi+WCuhYaKrVPn2TEPuUnKuWQ1N3ImfyAMgNTYp1aZGHPTbJSjcEA/LKp4b5+jkANz+qdWlEM6X3QbZ5CAlcNhoPfZ8Bdcyx7cnLXjd0z0Q9p9uI40bPJKDUWYO2J6iTaBlIcw/PgAS5EXUKWkDtxEiZvJLVPNi1HbMnq+4rCeQorla4BmfiqqF1RWS0wY2LxbyyyhgX26yg4Oz7EJ1t/+MIb7FEM6oAb6zpaCDqFh2t6iU8ENVjcYA69q3tmvG4J8yACAHaCa7XlFeoExr7TtBVvACArqhi6yCwzCoXnteUkB5Ff9UIeHxGH0AYgrZtnyh0Zx+x/er3A/In+y3pA4XP4/67sEcrj4ptcfYJyYRei6qzr2ioFb+p6s0Qr2AunxH7U33TRNj2k73lQ6KI8l+GzL7bV2z/qS8eH9vrw/vnlYfT09P168zy//5zjL66fsrJt/8A);lineShape=1;" vertex="1" parent="1">
                    <mxGeometry x="317.7128312043012" y="487.7084349513749" width="10.326863771857386" height="13.277286967754755" as="geometry"/>
                </mxCell>
                <mxCell id="97" value="ispe binary search lagega and ye sorted bhi he&amp;nbsp;" style="text;html=1;align=center;verticalAlign=middle;resizable=0;points=[];autosize=1;strokeColor=none;fillColor=none;" vertex="1" parent="1">
                    <mxGeometry x="410" y="493" width="280" height="30" as="geometry"/>
                </mxCell>
                <mxCell id="98" value="&lt;pre style=&quot;border-width: 0px 0px 0px 2px; border-style: solid; border-color: var(--border-tertiary); border-image: initial; box-sizing: border-box; overflow-wrap: break-word; --tw-border-spacing-x: 0; --tw-border-spacing-y: 0; --tw-translate-x: 0; --tw-translate-y: 0; --tw-rotate: 0; --tw-skew-x: 0; --tw-skew-y: 0; --tw-scale-x: 1; --tw-scale-y: 1; --tw-pan-x: ; --tw-pan-y: ; --tw-pinch-zoom: ; --tw-scroll-snap-strictness: proximity; --tw-gradient-from-position: ; --tw-gradient-via-position: ; --tw-gradient-to-position: ; --tw-ordinal: ; --tw-slashed-zero: ; --tw-numeric-figure: ; --tw-numeric-spacing: ; --tw-numeric-fraction: ; --tw-ring-inset: ; --tw-ring-offset-width: 0px; --tw-ring-offset-color: #fff; --tw-ring-color: #3b82f680; --tw-ring-offset-shadow: 0 0 #0000; --tw-ring-shadow: 0 0 #0000; --tw-shadow: 0 0 #0000; --tw-shadow-colored: 0 0 #0000; --tw-blur: ; --tw-brightness: ; --tw-contrast: ; --tw-grayscale: ; --tw-hue-rotate: ; --tw-invert: ; --tw-saturate: ; --tw-sepia: ; --tw-drop-shadow: ; --tw-backdrop-blur: ; --tw-backdrop-brightness: ; --tw-backdrop-contrast: ; --tw-backdrop-grayscale: ; --tw-backdrop-hue-rotate: ; --tw-backdrop-invert: ; --tw-backdrop-opacity: ; --tw-backdrop-saturate: ; --tw-backdrop-sepia: ; font-family: Menlo, sans-serif; font-size: 14px; margin: 1rem 0px; overflow: visible; color: var(--text-secondary); line-height: 1.25rem; padding-left: 1rem; font-style: normal; font-variant-ligatures: normal; font-variant-caps: normal; font-weight: 400; letter-spacing: normal; orphans: 2; text-align: start; text-indent: 0px; text-transform: none; widows: 2; word-spacing: 0px; -webkit-text-stroke-width: 0px; background-color: rgb(15, 15, 15); text-decoration-thickness: initial; text-decoration-style: initial; text-decoration-color: initial;&quot;&gt;intervals = [[1,2],[2,3],[3,4]]&lt;/pre&gt;" style="text;whiteSpace=wrap;html=1;" vertex="1" parent="1">
                    <mxGeometry x="130" y="570" width="298.88" height="40" as="geometry"/>
                </mxCell>
                <mxCell id="101" value="ab end wale par iterate karna&amp;nbsp;" style="text;html=1;align=center;verticalAlign=middle;resizable=0;points=[];autosize=1;strokeColor=none;fillColor=none;" vertex="1" parent="1">
                    <mxGeometry x="420.84000000000003" y="595" width="180" height="30" as="geometry"/>
                </mxCell>
                <mxCell id="102" value="&lt;pre style=&quot;border-color: var(--border-tertiary); color: var(--text-secondary); font-style: normal; font-variant-ligatures: normal; font-variant-caps: normal; font-weight: 400; letter-spacing: normal; orphans: 2; text-indent: 0px; text-transform: none; widows: 2; word-spacing: 0px; -webkit-text-stroke-width: 0px; text-decoration-thickness: initial; text-decoration-style: initial; text-decoration-color: initial; border-width: 0px 0px 0px 2px; border-style: solid; border-image: initial; box-sizing: border-box; overflow-wrap: break-word; --tw-border-spacing-x: 0; --tw-border-spacing-y: 0; --tw-translate-x: 0; --tw-translate-y: 0; --tw-rotate: 0; --tw-skew-x: 0; --tw-skew-y: 0; --tw-scale-x: 1; --tw-scale-y: 1; --tw-pan-x: ; --tw-pan-y: ; --tw-pinch-zoom: ; --tw-scroll-snap-strictness: proximity; --tw-gradient-from-position: ; --tw-gradient-via-position: ; --tw-gradient-to-position: ; --tw-ordinal: ; --tw-slashed-zero: ; --tw-numeric-figure: ; --tw-numeric-spacing: ; --tw-numeric-fraction: ; --tw-ring-inset: ; --tw-ring-offset-width: 0px; --tw-ring-offset-color: #fff; --tw-ring-color: #3b82f680; --tw-ring-offset-shadow: 0 0 #0000; --tw-ring-shadow: 0 0 #0000; --tw-shadow: 0 0 #0000; --tw-shadow-colored: 0 0 #0000; --tw-blur: ; --tw-brightness: ; --tw-contrast: ; --tw-grayscale: ; --tw-hue-rotate: ; --tw-invert: ; --tw-saturate: ; --tw-sepia: ; --tw-drop-shadow: ; --tw-backdrop-blur: ; --tw-backdrop-brightness: ; --tw-backdrop-contrast: ; --tw-backdrop-grayscale: ; --tw-backdrop-hue-rotate: ; --tw-backdrop-invert: ; --tw-backdrop-opacity: ; --tw-backdrop-saturate: ; --tw-backdrop-sepia: ; font-family: Menlo, sans-serif; font-size: 14px; margin: 1rem 0px; overflow: visible; line-height: 1.25rem; padding-left: 1rem; text-align: start; background-color: rgb(15, 15, 15);&quot;&gt;array = [ 1, 2, 3 ]&lt;/pre&gt;" style="text;whiteSpace=wrap;html=1;" vertex="1" parent="1">
                    <mxGeometry x="130" y="630" width="211.32" height="43.66" as="geometry"/>
                </mxCell>
                <mxCell id="104" value="" style="shape=stencil(nVpJchtHEHwNrh29L2dZ/ociRJkI06SCorz83tlGDIjKAbIJ30CwEtO1Z1XPIX368fjl+8Mh+h9vry+/P/x1/Pr2eEi/HGI8Pj8+vB7f8OmQPh/Sp28vrw+/vb78fP56+vv7lyk5P/3x8uf8hb9PuN5c8BMV/T+nb7wr5b8vfj3JPx2fST4b+ehiEPLdRSufXBlSPlUjX1xo8jwtGfnqhjpPdbUZ+e5aF/LF9WHkg3c1S0CyBwrRlSoA2Q0CZJeVC7KrBKguKZ3xe9ECzl65pYO3TgvDjaiV7jYqwspK3boZcZG89Ju3SiMwvAIU14oFVNdU5BUX6QndVRUa2XX7hORXni7WSilunrkFILMmfKPMmlmHVF1cPMGGd+rOa8Cw+ZOGawqAA9gn5LDK6GqjNSOB1BP6DpC2pL0OGKx0hu+VpxH9BEAZEZ4enqtMbttPXAcE5+kJOKQoAgAE6+niZXjPJwQLQOUWfoAOlKIluaYBw0ZrgVlFio5zIJwBMKsoZAAUa6UCs4p8GJELWRmy8gGQLaB6GXwAkNI1bB3pOiBtReUMiFsduQ7I3BFrksV4oGPafKhZ9sSBwmhDo1ZZvUfn4KtdsoCBYKYjoWqI0Ajeb9V9Q7Tgkoq+5ooNppa2h95yBGndsq7Gg7VuRYbrLK5W61alq9tgMtNQjRWgbEzhDMAhRWGCEQnQvazGiIRij9TDVhduAbLN0Z6k42rlNvpOP64DQEEJgADWR+rW0+gxXUTfFaW7dFzdNTkEi2pBE2CjdZZbbaVmqwAqjyLSdUfsR5b5gIzsVulRpA44cbK1EnVBlj4UV1J6bKzuZs8qDEgC0M9s5wKgUhT5VTwDurISyMZgwBDBhw5FwXdR264iQBX8TgnV5VJzOe2UEE8AT93btYjoA9eulQFRxEbMXFwRG4oAxbbR/8tgUjokJg8AZGEl0E72HJqWSOoSuLXPvqcKE7hA2QFEuKJDcUJ0TdcjT3JTaTUF9a2qXABka49cXKfjdI4O8vTYhpBbRwqdAZLfh40JXwBUvW+RCdDQ4ysoW7ZHWuUoyHbZpdwQGZT9znND9tF03qtcljIRrnO83RdLlXL7lrIA7MxaZaP2PLIvOpDnaXfR4nYDyqKH+h3R0E3ab63jgyzA8+ZnQTN2FHfBY/zGoy6Jksi0wP6aTEycP/HyAJmnzhP8Vj8v2OcQc3TIrhKp7xrQue80mFQAEKPkA1DuqmK68DLtnVNfB/RtzL4YG6JK5LADoHWJI6XMBXIx+gBAibCYrhLylgB6fpsMw4beYkJMIHYE0DNoOtOuD065KKjE3BZzNPp/JICe1AGggrrYBeRd71xsG3K8c5+R026JozcmAJDSi51MTjyzLrY+ecfDFnulqQPtlfTmagLu2o0BUKyVFtu3nNlKi/0eAO2uDSL+XazSix0lDsAAvQWdKpIOes8KIxLBWGxyAWh37YoBID682Ebn89jywX13HtyiFxv1PLg/LHb2ubMOi1sBAGgYW9w7AEBVY3GzAQDpsLg7AYBG0MXtDKwU7rr/maFhi8DihgmAYpVe3GHNaLX5sLgly53Z3uIeDgDa4Sxu+pBxhfiVvEpEStPuTV9VomZQS9RXoZAf91y1zj3DPVe5U97yEn1VDHkib36Zm43k1Y4BfSYEkg/C/uh8LZK8Vxu0HT/3km6D4VS2j8pjkLSy+30hD54Zxh3nAbfObH+lb4/M2bQ95/0n21/5C9NNYfvLffv/eDVBy+PD+3sQ345PT6fXKC7/z+9N4KvTOxfp878=);lineShape=1;" vertex="1" parent="1">
                    <mxGeometry x="277.93012565819015" y="549.2697012084707" width="0.8402500975576068" height="30.400766822674125" as="geometry"/>
                </mxCell>
                <mxCell id="105" value="" style="shape=stencil(7ZxJkhzHEUVP09uwmIc1Rd2DZgQFmCCCBoIabi8PtWV25feqV8SOlGHXKIRnTD58/+6ZL+W7X9//8Mu7lxx//fL509/f/evDj1/ev5S/vOT84ef37z5/+GJ/vZTvX8p3P336/O5vnz/99vOPr//+5Yc9cv/1j0//3E/496tcDj1voRz/8/pDDTP+74e/vg7/+OHnm+E1tHIZ3kOsj4f30NJl+AxpPh4+Q74uJsUw8+PxK8xxHV/CGI/HpxRquwr0UDsI5LDWVWCFvECghno9IDvh2EBg6J7zCA1uwBYwrksq5yLvCtgCcr8KjLDgFvYl16tO2AxwDfuar/dQbQY4VrtoOaXGp1TioTenQD/O7b5ACuu6pB5DhU2XGtJVVXsLJYFADyleBEYMBTZdTLuvM4wWMmhrteddT2nGkGEPdk1ySrOGAXuoZi4ywwiTZrAzuR7rSqGAAzBFqLIkuzhyMEtPaWZ0MS3pHsY4rvK+QFUnMGwGuLhme7jedLcZQFvbUtXoNXRyk6atV4vb2gpL6qeXvrGHCkuyFWcxoHz4kfsCS/2S3UyHJY2kN23K0mGGUcK63nRNh6e6L9BV+cwGB2x6zOPUb1xlAYsz+6rijGeYsCTTzXqdIdumQfnMICWgmHsmXdoGeb3pNFHADDJe78GCInnvVUK/2sMKiyZohwG/YQBy9vb8pCCggjEsi/lNxmc+oSUuJkTYr11Bv6oRh8OZDv9z83xS0xFK1PUXtAMHkiooqVnm0OcT6LE4Nq5KvUKk8VnDzgoNztO8XUwyns6ztUNdblAeXXArIS4VqBBDmqGF6gTAFVmUSkMFGtxZrRpptwAoxXZtbkkUOA0tiCsygUh4pKmjWBhzStEJFqIRQ1RJzWAS7ByHlt1gfzjSXBTMj8Mv3R+fNBUZGG4MN4sbGpjpWGYwl4xfNL56s4w0PqkZ2PmAmdn44nIpynWimv3kRCSqDYxjQw9yrz5leCKvfqRNb0GDTHgdLvyEK2iPU3WnHhnJ7xtuLhhUxy3GkmZYjNuqIVSKj3qQFm/g6f6eIoYLrwfxK/Ussh5XDY8J/Y7ZlbjOgplccsfZ8DjtcpbkNGGS32kOL0WEcHmoI0n5CFD3BZaCxHT6uofJ63ULqWEeZ8mrzjAQSpfuYvBEKF2Wgj67lwkClosKCjK9ID21XFSYqE1cUGpZNcvadkkz1AMEnAKF8+mqVIv5FYKWJiCsw6bTaEntsPWb/IG0e89wvThzpGRuew8iMJAIqU6X8klcPBLQPUxMLe2m2xXgm4UkFtAZVigkkN1NmwBt2tFFe0lsD11ItYReozg4VCpiUsNz8XpK22jZawhutzkH8Xzz4BhuBIhqeSN7TwHOdk2Z1dc3RAlmLnqs9gtEHxPIsumCDFZ2rIMJUHzLjiMrGZ3AFrj6JbuZJzNM8XyLGd2qurQhCsVER3ltm2YBIaQ2uuYo2qIKUFg3XZIomp8qn+CYzDyf/XdxM1Ra0lLeu0TctCmCpESmrYtzNEGS5kcmJWnjwC4nsC2oGjUeSdYNFZ8ooGR1M3Uh9bg54+seWsb03WKckv0NT6l2tbi2DjBxX2AeBMXNDJQLNndKew/EKGRXEuEKhy1AYlwtmE616ZRvIVfZT/7gNj7AsfZ8JwI14ozP8sSNPZBN96F7eAJO+nKYr2CeNyzGiUDCrHaUoyZzg4yJnRoenGR0lbYHhQ4FkbGdksS4XLEquu/BCRAjZzctXmPDUJrhJK9uYCgh49ZDuwb2nc+TQFFw8qTMaU5AbHonygylFegupuTaETNvoyhDaSFqn5Szd4bioihRrxtKJ70HSl73DHJK9biZh+jeaSsVjvYpyZIyciv7HlxahklTd+AkcdI0NBfdNRSaYWhFwQQwy5qhND0lLKS6StMTi9sCkqF0RMY7xjmARfHBBITXyBPhjy/V5sWl2n7UHW5NlG9adYk56tq0armXRNrqajt5spupystvkMgJuJKB/dmS1M1UjEAmoK6ycE+OqZozUfQaTRO/bUC06e4s7omJfq1A8yziQr/UznzkhsEi9e5Rlc+QAGnrroM5AXIzvSpuTR2dcR/qvdOTdqrlikINkcCGP9LwVA/4fl+gadhNZyp4X2AcjvHm4mgPo7v4UNGARnUgkRO/kbVyk1mXRjySsJsUH7H3dMi4H8D0EYQT0t4SNUIzvWh1a5NgJJBcptjQt7app2RZEfF8hvkk4dhGSyZatW/GjJagQ8sK4WxXGY7VVixEudkg9S5Ul2XZVT5BM1GaHRaWZyyflnLOhu8UFJOiSts0kZtlKZp5cqy78UzuoSL8MWWWTTf23qVo01blYmOJ6vlMvcmAPJlju6Is6xv1+CrwjXr8U1CPw7WFDSYG4z2wziaafHpMAs3toWNZxwxS0X3lDCVpfNgFPKYev7pEGF233R+xRPiEpvhWIsx/vhKhIbzl6KInLV8+taS+FDPRJns4ufZHTkBPiSHcJnzlpk8m/JEjUxONqN624uIaCzJFILcHS8tIl2wB0h+aOGO352m/YUE3k+51A1LL7bderj9UL9fXbPX/u5fL9SRGBEa+5zGyHrueyohYcPds6n7JR+ezB+NtPNEj2RluRKZtezchO5BCMvStDhoBzk4gBPBjgWG/gyQ9IocCPoowQtZUDmFJS7eVSyrV0RzcJDYUlHK7VPNpI/YgNxcrKvbwtuZIFH7+2TT3Nh5b8bNy8ifX+4g2Em6AM8zND6ozpKRgFOWxMurPGNoswO9mzeheXkH7nVWzmnhkwPfHO8QUsWKx4sEO/T7/toqCxIjgfnWlZiLq23KdoZxtpBiVmWGUu6ajpDOWN2wHkn2nhiqxqiszRcyN9/tJPmOCPcx7hSwEEM299pWwHjJd2bVUbDiZWf3cbrWjd4KW5vc1PaPVteGEC+yj6bG2hO+LjKwv7TZOHvbrrcI7TuQo+tC6lPk/7FtwLHnvmFfa8wSe2SIbcdhL92DnRjlZ61oasKukfKa53Hie5blHpLfE2LmQCrUgKOq9uIO+TkV1axwmdV+gazvIjeN5lH5LcrwWFwgNWchLY0/q31GJx/1eIeW6U3VjcmJpYEo4h1mxx2s7iWv0Md1AXj0rXBsV87Jyvhh3GgR33b/lkafAE9a7a39Uj7ikjXCkCsQkRXZFHXNM+PmBqEnChomURblKVuUWlf3RB9cpTfTsfoNWigkZnaslUgqsOiLn6VqLEiKZfuDA00LPlpX7TkPNbYd1In4UWO13XChzvPMCJZH2UVtHnrwDGtWrLgSG8SAL34YTxIj+DV8irh0IG9gF7zxXxwjibR57M6LrfUWCLipd0rB8k7QBp+K5u28xMHfjvldR2ZV83bdqng63P94+i/PTh48fX7+qc/v/+hkd++n1Ezzl+/8C);lineShape=1;" vertex="1" parent="1">
                    <mxGeometry x="272.0518648981814" y="576.162162934757" width="12.916721941132636" height="7.757778868245355" as="geometry"/>
                </mxCell>
                <mxCell id="107" value="" style="shape=stencil(lZzZ0hy3DYWfRrcs7su147yHqyzHqjiWS1a2tw8YuXumD2a+Tqpyofwmhk0SBA4OAH4o3/3+8w+/ffyQ4+9fv3z+68d/fvrx688fyp8+5Pzp158/fvn01f71oXz/oXz30+cvH//y5fPff/3x2///7Yc9cv/rb5//sX/hX9/k6gomsv8X//3tLyOM+d8//Pnb+F8+/fo8foTcL+NnSAnG15CTjO80PofYLuPPD3w5viz9nhXmgvE9zOvvpxhaBYEaRrkKpJBphnR8wCmQQwKBvUL5pBLyAIEexnXNqYZCAjVUmaGFRgL5+L1TwOakNcQw4lVghNXfC6QZhnzSwk+y30vXbc0pJNDUvcTrweUSKn1SDX1eBWqYJFDClBk6noMJ6Br4tpnm9Ovt2cpCM9j1qReBEsOE+2PKXK+6VDKfQwrxqhp2Q0i97X6tq4UpLQwwASYwZQ1mdGiXTOC6S2WGSWuIx64fAtWMAJ20CVw/yexUvVnDVb23IaQZkh5c7SGyQL6eg5nmP+Z8J9Cu52C2/48b8k5ADq7ZR7K21qsRaKa/fB+izGCGjLa1qDFu/di3d3e6XNW7Db7TTf1PW6FHFBjXO93TMedrgR7adYZu20CLHqFcVaObpaKDM5d83aXeQ6ZdmnrS3ewSWA0z96JLI4YCu2S2el0/aeTjJ14LlON+nQIVHbvZanGKo7NAD+l6gcZEI2C2egmUiXinNxS53od5bsM76CBrmCUUEijqRWcNDc7B4E+SGRqeQzn35BToCMhqUuhgAosEqkOUAxdtdk6MsQnQFTWzpbs0Dlf/WqCENVVg0Az90P5nAVhDMxTs1jDAenfnULYAKJ/ZCLlxJlBphqGO3QTI3Pd1GJWnk6YLNJJbdENjbFc+OvVeYMjsyjc5uIIAa6yQroZsGvSFXbIbPGSXTmzwWqC6AMusLdgl20TZJVvVgjXMqQGH7Rvp0jJEdtVWM8YJ1rCyImM7e/LTyxZ9ncE8UIILtJrC0J4PUPdaoGtIY36awrI1jmjhFGiorSbQZYaEJ72Gw3yM7tdwMLRg0LQ/6eqBDLcWXnR2UDrRDP1AFqeAfRJAODs4uQ874KBPqgckPEOaiWZmFbWt2ZSFZkiq3gYmKH5YDs0YXKl045zVsOCVHMrDVp8CE89hW9LrwRlsJOhgZqZcdcmAaYYLZHauS8TO2NtMpTjFTVOAmTGzJRBuRxSgS2a26lIBAljDhceJ4zhDqd2xRfBF5hMdezXJJVbnTtAoWaggscDEoM9gw1L2LcIRmIlTBBoSjc/HRXmMJ8xQp//9CWZ+x7RJ9j8T1CuqEQv338BnkmtjCkFk3dKwe6sczGAAWmz2Zvdgi0rVqOER9b4WyI6hrKgUD4bn6eoXcFR5qBbdGBczuE3WMI+/vIve1GbHI9p6Fx9KEJBvSNPoBExXiGtYCklsVZECe7taQtZ1ZjP6Yd2ePFuHkzaBeP0kO0qKGkwR5lX5zDsjI1PU7xTznfRJWSnNwpHP1n4HSZCRSccxPVNpzO6J36ntjnAc1/tgZioyHdiuJ21Ij8xScm6kcdjt19AGBsV7lwRAW1zNAqIamyQiVikrPW7ObtKii37SiAjRTVuzcD4FuYaNWESgMaXZD8RyCgyMD9NQ/2aoBunAqTNYANjpk9ahCE8RKJJETpcMyg02ld0RLOSBzDDKfbCIkRIhZhiX5OAik3VTOR+LGJG3isrjGsrv5KeL8lYWR1AwVjzSaCywDid7CvS7TKVkHXaISeCnHXbuSYAgej3B47MA7FKL7uAGBvab6Mq66MVElxcg1ehRuejV0e324napHYbntUDX6G1V9KLdRW8mQC5rpCMj9qStpN5m5wTCPRiU1wJDLd9KuGgzWxLu2RUlkLh5KzECTDhOl6ucHSHcrI6WrQhD7fckN2MxKSU3pyNYbqy3xelFHMo4UOA7JkCC4h2TEl+SNAI1ZSG8tA2jEF0Ts6EmINnQ3hAJmG5KzNoTXtGtzA6cEJQ2AeXeCtNQRTNYdfEa8kGRPmM+ZiglkDYYumhbk4ZluzKESKKk/KH5JAKJpkuCNSx4JXbPtLVed8kCNYoUtxuXgONkgd5dIGFkckb+YLq8hsEVgtKzqdVIXB9kNiJKPN3ZCGSNsgxnIlmXNcoy6Es+bkZVPgPXlF/aSQTxD6jdZoTExQ0suTAbJBmBjkbJTJCwMg29Tx9qJiuPdxm7ila1R80hFjR5BjLE3xZMX7esID3f1bAtuWiY86lFTTDfGjM9Sg9jGFNc5i1hYFWqIs+EUU9xsWFGEsDUty/ZfywvG4rxKtNJriijY+S5l6esJAULabkKvMhEjMvsp9OfvItUlZ5vXKLkiBibE4mYpGGhrYo2den4fciwScPpREN411Tn8sR0QXZ1ZVwmlrWcycZXoiNUJ2w8nrECtcIBZFK6sHBYHtXm7vGwP1ExlI0nJxAd/KhYZmR+urj9x++ReLkUvJRReT8bT6mXqBCwFIwOHC2yKQAi8bRU4I4adfp5N36636cMXlZMUDhmdLVzN/uZNerd50VGXXmprQ9UsXW4xP9R37LiuBt9TsoA3dyX5PTn7j4u//uob4pRuMjO5R+2vcLf92WzBJqiyw0UZIyj0lc2nojK/3d80ftiHoT2p6mPzxxJdwXd22LDeqcry5/oHw0CVJdRJzItuZLFnYfj7ExxcQMWdjbHK2H2NA3H4SCVtnX0Or5hAJqL2izmxbJrjchY2ZRdvQtXypakNoWLTPcNjzKe9qe4lgIev4ttiownUqJWvfMR17v53ibjyYQ+qqsf44kOa+6OpQO4v76Sbv8T0jy75FB/nxKmfTrCA+OqkRyjwnFzc80QWAxgcblg3IoF8jMq/9KPlPE7JiJrHENBwyzHcT7HMUzBSvZ2p2eJcmpa47YDFZqhO4GGWZJdaStmdyAbOc+c+VPgg6ewNHt74zmWc/WZDftynRO7A4sKLB3Ja5YdWeGimZ6NRumTqnZO7MIUWrRrbqqcvV1NS2lqwwyDCQjCrDcVmU1VoxVMeuwZJE8/sAxlZ47kgt6oRjsyqU9kO/L/zgX2ySWcrqR5ZGRUTTXkk0blGVwH5bZrfB/E7Jlhwzu9dFtnQcdsRkA425uug9kVbc4bq9E0fJ2Ls1VFdWnd2NasYMHMAgXI01WVLOadh4Mjpixkvc2/+UTmpERmVoeyuBxod/VIjrsfc76jkiUPs5jbM8wgce8aSL1tUCKLnpgwaK6Oe3Gk0KrCkrVwl1pSXGgC5B820HMChJzrmfJ7IIEbrOo6ePcUsE1luW1aCAUMPYsbNQGi0UtVOLa4Ora4PoWbCotHL/qTftNB7EpyEagcUhVXVpIxxtuN0VLhu7iKcKlH2Wk+0D7fSb37doi89n1s7a6wUczGztpR6Hw2+J4CmWPtqpHh5MaG5Dq0xkT6xbeajo7V676wcTDBllx0YvEK7lLUK2rYAUGfpmV6xRawpZRxTwhmpobPjb/H1cbtKkgq+FBEucssCWco8qnMd0xtdqkN7+Z0NQNcyr0O43Ni7jPp8ma8FMTcNN/4OtRS+XkAF5iUzLcga6mH2Vi0Fa6YJA9Om1T3xAE/NbETZ65bB8tKu7IkmzagezZcNMZPfuxmHolZJ3K12dXd2Zz0Sb672baBDi53TY/ZyVAkk/37Gjd9Ci6BkriRq7iinsVZ66YR6OSs9fS9NMRG1qhs6sAEUy3K4HcktGvXqo2GbZkW/UrVQGPCvKg5alzsOVzZFu5PdwR4Qx3t/q0FDPJ61zaUhr1VI2oOnSOF4TJeXKU2quoDX2LfrjYx4TKcu1mcsHBtiSlxeZfr9khctzFdce6j7OBdIC8ezcwQFsFFdQdpcBFcci19E4Ngg9PiNDeCviFUXE0bFlS2F/2kBBMsgh3eB5KAq1M1L0tXf7lkVuG29Uek9QQtyI8vh0V2MoMFJPu1e5PJaUaXsazcULKW8k6GByl/sVctbTcc3tm+ags3PzK1G6wFkhesWtlt6GLEzicI3qmrQIW+cF99Oa8ZQrJLy1WujMac/lR2bps2ws3dvQkSsVZn+nccMlaUma2UbbWfoFSbfbEWnzf2Jl3JiDnwpIej6G3f6AaN6Pp0Fj5Y1t2zPSZAEWdvWtP0qDl+59IlolrcL+1fHblhSf27JluAnlrprscl8lMrRbV1Rcx87Fcb3C5Rf0h1CaU7gaFs9Ragxp7mHi1kB1F9B0rEK2rgOV+hwE6TwS4ZOleBiedQHMF48wqPwSPtde9cETiUGjYjQCUq2fUPzoyFtzsMk0UnZDwemcXTVC4ukYgKNsYNOTc1hz4qh8PDweLMhZPuCai+MJDZ3eTCI00O6ateoP22ELeWChLojZ/XK1rd2BnpGnIWsN651sC3KXd+7Mt3HbcbRtJViZstJDPj0c+JJd7QWxJvN66gnIobzHJSdtW/XrPwjVCnqJUffhnugcPOr4GoTtTK5Soan9+86dhddUjkTJWrCJ6cCnvReo9tFVrlXhoWSowXFbKEC4caRzP5FK8O984nv/kwtQI68/t7Sxn8XTNIyNk959qwOyq5cp58Y1RcTWrmd7T8+69p8ZO0zVVgcXY0DTXuO6JnrlOZyIrNSzm9KBkiS5qr+6TEbwk7ImmXPdEMLpBc+GrNfuFWoDwil9JcZgfDTrvnmmvixnDHXHIMWYsWmjZ0BGY33Xiqg6uunZ+Zv/0KkHgyzMjXpZa9YStJdYkvrlporra58fuQUdkUjh2bKyDr2FrRXC9DR0fTol6xzv1yjkkdSGjt9ap+Uti491PHEzCoLn/Cz21ufRCKg/v3bt+st388Hrz/6dMvv3x7L//5v+sD+fanb4/rl+//Aw==);lineShape=1;" vertex="1" parent="1">
                    <mxGeometry x="282.38923783445307" y="591.8059666836803" width="13.377351765882427" height="19.761849429923018" as="geometry"/>
                </mxCell>
                <mxCell id="110" value="" style="shape=stencil(lVfZctswDPwavWJI8AD5nKb/kZk4taeunXGctvn7QFXliKC1Y7/pwJI4FgtyCA9v26fXzcDu7Xw6/tz82T2ft0P4NjDvDtvNaXfWpyE8DuHh5Xja/Dgd3w/P0/vr02g5Pv06/h5X+DvhvHPk3Ahj9/H/E3H99+H7BNjvDgtArRRqY5/JJWCfyUu7fp53vA5gSqUBcCTJ64CiO/gGEBLFuA6QQjE0gCjEIAZxxLkBpEoO7JA91TapukTy64CkO7QulUClrANCoNoCaqHKAMCU27RqJRnswJWkA2RQOE6UkgUUkCV2FL0FVOCSj1R7ACIr5dB5BOwTee5CFuDQHN/CPgB7R77LkAO0UFYYfwpllNGZlQt71MzJNkIVmE+vYsEWIKhiiUK0gAx20JBL55KAFGkMlhNCBchF0BiyTZIHvNbOsVW+CMhqbyYLEBC0ArjVVOWFBzzSGPpGSKg3hVzXzAJ2UCr5zqUKqKeqLm3Qi9FyHeEpdN1ZQV7zHOIyBiDbPEe4sI+ArCrRnT8ehNxNzrHMgHn32mtKTQ10KAhqf22Vtj117AREvGTnVCqwylGnUks8HZ0oR8lbyQsXSbgOuKy3HP+ARlnTag4Yae6/6wCm2AaNTzA6zKUtAz4h6fpG8xycajnMv7/skURm7YNq7JEcKQec9YfBSUGinYJuFo+141TnD+p7JTG7e+xlnsG3+VO9VSIcb029Pyif43zxw+31GlXH+gNPOfceyW8A6MPXDeBlt99PF4jlf3tj0E/TbSM8fgI=);lineShape=1;" vertex="1" parent="1">
                    <mxGeometry x="252.45658914366902" y="533.708541478302" width="0.8977201577229635" height="13.174438748424386" as="geometry"/>
                </mxCell>
                <mxCell id="111" value="" style="shape=stencil(7VnLUhsxEPwaX6ckjR6jMyH/QRUmuEKAMuT195mNo/VqtNsOVRy5GdNtjebZs7vjq5f7m+f9LriX1+PT1/3Pw+3r/Y4/7UI4PN7vj4dX/bTj6x1f3T0d91+OT98fb09/P99MyOnTt6cf0y/8OvFqpeQmVnC/T98ESvXvF59P+IfD4xLP5FKHFwq8jZdCtXR4H8gXQPCUDSFTTNuEwiSxv4EnJ9uEPBIyBXBCYpr+tyCwpxi2CTGQyz0hQ4L+Xu4J0VECJmmUsu8JTMVvE3ykLD0BX1ooGos0kiAxIrHBVwogzoEqW3yMCB+dxSeQeJ6kDHgQAr9i/78TV/GO6mBPgPhkAiZUQcCczTnFp4zwpi4Vj+pM8cb+QgXkg2s1tcAziJfaX22+VWh/dhafYbyct3gGv68VO9jjQZdI5I3/I3mQ/9638lhUZEYVmZu/FydkVDHaJNLgIlQyeWgSmtPAJG1DpS/KFFqarxNK88lM0KwABO2M5tJZ/QbCoFnM/QlZ/Qa8lNheuszNdZ0gLY9ngmYG8FIOtlmLg6mhFkufSxLhhCpuOKG0drxOiMNUrlTR0Cx2QlWNAyg30QHWp0bN5MCl1WIvloAahhJKtQQUaZHWcGeCJh/SIhrpZAmoJ00n9KlRpbWprTuIuXTFamculwUhozvkNgUWBDRHJFHp7+Dd3PvXGZFqtEcISFclmFk1qUrkV7YaTwmoIJRgIyetn28RggmEhgbJHaY4EKCw5VYvi3TNyKQ4RC63GbkVOR5LDrlV+9ZwgkOXzkOkc8v4rXQ1zbVmOOS0gly1bvUXapQtAemSiWBMmkfGpklsCUjZ6qWNdNNshck39PupgJBbNUwDAZqUhtZXWyjfhzBuVRWrE51Z1XgpwDjk0vT7YmahrqF7mxkQk99ALqVKpb+0BDjZU7JiowgsoOTasjwTGHop6gl9m8kC9Q/XpoJnQoRjlNkuVuoGpOGmTa83Sd2ApmJgK6UvqERfrTqZ/IZ2N9Whw7IhwK3Zjt1pmUFXePvyOQjpj+Vzif9YPt9z+WRyxeIDiFdpj3JmfIIPXzzbKRtx39IbeHOChxFmZ6csCxQv0TWLZwLDzpi8HfyhwnGgm6b0Jqmfka6dFsf+BC8koMxKbVGaCSqNkWJLVqZ610K//vhVN81+LGeoUlWemcxzsBEpXpLBo0SaRLIYPNoKz2JugQcerfPT5f/Gm5F/wZ7a1OjiviBgZ+W38CcoTMWXYvCC/F+tIvewUSx2uTMBPTheOwDt/eMFQov4Fv5t7xMu4vXD+eXF3eHh4fTuY/l/+7JDvzq9KOHrPw==);lineShape=1;" vertex="1" parent="1">
                    <mxGeometry x="252.06604809753424" y="535.5265496411082" width="8.561095678427055" height="10.960838021038867" as="geometry"/>
                </mxCell>
                <mxCell id="113" value="" style="shape=stencil(lVjLctswDPwaXTEkwRfOafofmYlTe+raGcfp4+8L1ZUigvJqcpNtrAgQi+XSAz+87Z9ed0Nwb9fL+fvu1+H5uh/4yxDC4bTfXQ5XfRr4ceCHl/Nl9+1yfj893z6/Po2R49OP88/xDb9vOF8pyYgK7s//byi7f198vcUfD6dlfCFfm3gh70F8Iheb+ODIJQBgyqkFzCmuAwKNvy0AXClEAHBU2hKirgAAQtyWkCoVUEIl9k18ruRBfKGYm/iSyYGKtQWuia+BIny/b/OphRzDfMz7hSSgeGn3R5hiBQ0QKtwCEiVAOlbKtDskukMAED2FagEMSk6acbSABABZVlbIGZBoft8SALomhXKXUkE0rZS7FQT0QYRiSwxdk1ENQrVaQAXM8M5NfZoRdZqme0uUbAEVA3xpAXNr7m0TBwvIoAitMXQrVKB5uu0+dQBAJqW/5bduA+C3RPJsARGlxJNCLLZVgMYowIkFJLyCBZStFWxKBarAWHS0AKST47aaxmWqaIW+cRtDXdZUAKXUky9PM3WX3t3IBcTWfoAKrGF9Rv3nZEClZ0NozAoCT8QVKRNKeEZ7QNmQ404FoM58FjCeEL0KgAnSM4g7FUDc0FOulw0BRauTMafcovnr5KiTcC1zgopPoWt1LPcBbrKbS36Dbe3JylvvN+ZHC0B20vrVmqGMeeK2y2rGGJmfSdhns5dIQP7B2gY1kw40gCcruzCrCZGIpH2/mmEG+WQrYOq2HeCcDmarwWqPI2BcnRg8UxRPjRLOuM8Kh0avC0bjPfQ8Gm/cvDIE5ROsbXPwRND7jjnKHTzJNd7o+zxx6/FxGo+PeNQvvbAFmz9UiDzRcREPvI7Gd/l7dFsr1qQ66OQ1XpKJh9fHam93SiisiMkQFN82P3vB3ozXh4/b/MvheLz9GbD83d7+9avbPwf8+Bc=);lineShape=1;" vertex="1" parent="1">
                    <mxGeometry x="264.7905981863072" y="536.131678067789" width="5.310967420213013" height="11.585973486329143" as="geometry"/>
                </mxCell>
                <mxCell id="114" value="" style="shape=stencil(lVbLcsIwDPyaXDWW5eeZ0v9gBiiZUmCAvv6+TjNJcQRbuDnxytZKK8mNzE6bxWHVWHM6H/evq892ed408tRY2+42q2N7LqtG5o3M1vvj6uW4f98t++/DokN2q7f9R3fCV2/nyYXOyJrv/ochY35/PPfwbbu7gAtTkApvKafbeC/U7V3gPbG7jc+erK/wgSIDfNmOFT5RjgCfiGv/2ZNHDmXiXBP22KNMqb5BEjl724DNGPIxRpbEwytCTToEMgJZp9ogJmwQKdYupUgMdFHyYOsbsiULhJEdxTpMWcigRMhUGSmTzcCAByWMBkwOkebBgTFKZmB13cCQr13yEVaPNnClfDCHiUs2Y/Up0pzIh0fCymbI/Z2JC5TRBUoZRVugHLT0uMQIUS7iTnWMGPYkXT4iMAtXKtTF4Yw7m0Bg8ijRqs1ER4JZTxpZcuSQS6pTduJC5aBacacVxOFRAz0cirgS0JKePkUtBohJTbeLVF41cMN0Gi9IQ8lexRdpmikD1DKYEk/7KhoOhnJNuDRuB/w3JHVEQxzK9QZ+OnoCDKguBIHzVvkjFsZH8bW4blQ8S7Pw4HyVLw/Do+RQJghQw4OPqX/hZfH3blu3223/7Lvcn77zyq/+jSjzHw==);lineShape=1;" vertex="1" parent="1">
                    <mxGeometry x="266.6271174670321" y="542.7762874330464" width="3.5189992102558185" height="0.38687825890740374" as="geometry"/>
                </mxCell>
                <mxCell id="115" value="" style="shape=stencil(lVbLchtBCPyavXYxMM+z4/yHqyxHW1Eklyzn8fdB2dqN0EjYexuNYJamoWGQh7ft0+tmYHo7HQ/fN7/G59N2kC8D87jfbo7jSU+DPA7y8HI4br4dD+/75+n369PZ8nz6cfh5fuH35Fcg8ezE9Ge6IBD9u/g6me/G/YW5CAIZe5kfuGmfGqgY+4SS79s3QWFjX5DYsdfnxNg3FCeeps9Z+5ARquNQ0awDq4OHQAOoNkMV2Qkp0JLyJUcMcUjQT6RsHPKShnsgUrBZLfPNbYeMZr9QM6IXUgJZ1C0gNpdosoXXGOxhCKBmQ1JU6b5DbXPEiwOhOkToe8HWam6oDoa61OZCXEYtaxyi9pNT3n1IQnMaPgk6NAQnS31agxLndZASl6461O3orjLqh6VnIQdB9kqvXieVGWlV+0gEOxpwo0OjgvZAdCKQA2SVzBRB9XjrhKyqg9c/vVISeJUUa4dGD8Nah344NCXCqb1++mi1ZAdDN90uqLwdEtJVRL7ICBp1CBwF4Lm3FtYKoiMAYaZoKYvq6jAhWpJzcSdDP3oyyImnbwSZ2/Vz8Qi7+enw6k1y9K7LZ+CZwXt82UHoD86uHFQbnWpYuUx9aK6H/3vby7jbTWvf5f/Xe55eTTuiPP4F);lineShape=1;" vertex="1" parent="1">
                    <mxGeometry x="266.62048262762085" y="537.6180887488164" width="2.705772889828633" height="0.4002453243370066" as="geometry"/>
                </mxCell>
                <mxCell id="116" value="" style="shape=stencil(lVfLctswDPwaXTEkwQd4TpP/yEycWhPXzjhOH39fqKoUE4zWk5ssLyhgASzAge/e9o+vuyG4t8v59LL7NT5d9gN/G0IYj/vdebzo08D3A989n8677+fT+/Fp/v36OCGnpx+nn9MJv2c7psSTUXB/5heBnPx78TDDD+PxCu4dSTT46AA+UWnP9+TLNn76Wxq8I04ALxS8wRfgPyeq3vhT8jY+Kj/Fxgv8T56Ca/BMDvCTCok35yfgT2aq1fj/P6DP8ZVyNHiU3xIpWj6R/6LxpgYfqYRtfM2UQstPIAGE1o4gzhQjMBCSliHNoWdg0FGUAgVg4N3KyWKRNQjAkn6itlEXXvpiyyC2XxAmAXWhUaeWphrIg8ZRXrmNWt9Al7IN+oqHzy0i5bY21MuCUse2+PQIh4pDm7FVF9HiAOVd/ZKnNRGZCvqCp9RWU1YFQYnQL7SpTgkqXl0FZa3XROkGS60BC2ZJW9K0kKoaqg1NdbZNGnExmXLlSILyIIvKrUE7yriDTKajLEq42XKtQarkbxi0mS6OPJIy1Y020+KWgt9UprblRI9AtaQdaRooU8DqGltaJydRUydy1RrA0viqQamLbq0NpC6BiTVNICOuHgbdj7isiQMN1M9QLQ0GLvVDOglMXL8FqAEaKf2aoQYF0NrvMRpDBC71i5KyhOZov4mpAZrU/aqnBg7E0O+SGrSATHe76tTSKATKYs9HefaLZl1JN4x4EfYVr8sYwK8St2pYhvE6mzIVSTSiu7VEVRgloMOHAkdV54++iUBSu3h9xJcFy2elAEq6Txe+KthqCHBz/uLF6CZcHz7uYM/j4TBf4a7/t3c2fTXf9/j+Lw==);lineShape=1;" vertex="1" parent="1">
                    <mxGeometry x="265.68178198172893" y="537.8744985300546" width="6.466320602725745" height="0.8060384951599961" as="geometry"/>
                </mxCell>
                <mxCell id="117" value="" style="shape=stencil(lVbLctswDPwaXTHgGzyn6X9kJk6tqWtnHKdt/j5QVdkmaK0nN5nmEsASu8QQHt62T6+bwfPb6Xj4ufkzPp+2Q/g2eD/ut5vjeNKvITwO4eHlcNz8OB7e98/z79enaef09evwezrh74xzTCVOKM8f/1co538L3+f9u3F/td8X8ma/rpR1QPTkpQEETzmuA1IH0CMcrwNyIK4NIOlKWgeUsJS4AHKk7NYBVaiWBlAdVcBSrVTaGmqgCFhyzMTcIhI5D0OktuqaqYCqtQgLEHICAGVJ4Ayo5FHViUIHEBQhUBALqIAmpT05C0hhHSB6HtuiM2gmESqmhrL04xrAdRdXcATTrjUSA0FMKZmiPUVwD3Jm/apdHWBJ/44GwOQqvrjUADRmATUoJ75agKCUSscSU0QRtL07jaY7AhJLawURbmk0UrpjA51GPcpJjcbkVKhgmnJ7EdMR+CJq699TkiiCNmdoDf/Cw22E2nUnUhiCKXTOhOxVe4dzRxPwvi8DclpekAVQGGounV+Q8yOkZgkixEDSphSFItBciDalIJBWJyQtwGOj0ZffaBSaMZO0aihUQTpMvu2jDB2j01qCD6j6VdvWERoYU25d3i/CW2Em2iGpAgX45U26bGegeu2E9nRensXbrWbnI4a3mu0ogtUrdr5jON51UwhDW//quHl/v35cZtuXcbebR+Pr/+0srEvzHB0ePwE=);lineShape=1;" vertex="1" parent="1">
                    <mxGeometry x="277.2193910109139" y="536.7040583436707" width="3.312411449114665" height="3.8610829787173566" as="geometry"/>
                </mxCell>
                <mxCell id="118" value="" style="shape=stencil(lVjbTlwxDPyafbWSOM7lmdL/QALKqhQQ0Nvf1+kqu4lzziDeluA5SeyxPc6Br94ebl7uDsG9vb8+f7/7fbx9fzjwl0MIx6eHu9fju/468PWBr+6fX+++vT7/fLo9/f1y0yzbrx/Pv9oX/pxwtVLghgru72mFqeb/C19P9o/Hp9E+UfvfYJ8oFWDPxPP3KzkH7B2lOtl7Tx5sUDIVPwOYRAAgkp9v4FNf2QY4CnkGFEq8D8jqEjcBgqMKjpTZ3kGjEDwAeIoGIH1lE5CSdavGgcEdElOe78CeMiBGcguRIqW0D5BMrsyARBkcSbh/7wwoVEHgYqUUJ0DUOEQASBQNIFABR4pCfqaGriDyxUh1jkMsfWUPkOcjie6JATK7VXQHdIdouaSxd4BLbYeZGklD+cEd5h2Uv4x2EHIzl7IQA/IpIM45nSt5QD4FlNlLJRCDMqPUsIBMAUU6U5qp0UobqHx6JJ69VCMV5FZPZc4HLc4oDpouUSwgI0BcAJkicCs7csECUOXTspUMoMC6dKmkAyCBHVpxrxZQ0R0ozuz2zsGWFZYOVztXtk/UqTzYRxAFt+GiAi7gyEdr70DynG83xCyA+7remgYWMaiqzlawKr1E7fhHjH2EJTKQBGuPGKHyoFp7dJ7Ym/1gj7JGlvNLFxDbnXPxp8CcSSTZ+j+D8y9qROOLGrOeZ650yh8BfJDu7YHPSLzEftrBPoM2rkpk+X4F9w1dkI72qEIshbpC/jgq0dqjsqv5kqw/GX7fGT5k6H/NdxPf1CvGjr0YPkuXnzv+CQufUW8NXa+P+QJKOlvh2PIR5Mtn7b1YRaRDSQKAFrEFEFBT0kZtSlCAKdmGoAXAKAfC0vY8DNpFSw8Aj+SHNla/AJCEcl0KnBWR9hlUd6uVgaq5kDJVAM/MVlWHmK0Cx6Sm6kYocM6ZOChTRA3WaXMGqPZFyayAOMehqWsQBwWYciF4ylGAmWflPJXsAUzDlw8unXq9HYYWRO926XmHyJ1de5E2R4oO95BAbo607ilILOuEYKZN6SPx3vBoRjtVwyhwEpbx1MNpU8RO/U0+I2FRbCcMpdeR7U5+nmnGZwIEWKYcrf5Ie6VqxYXHzTMHW2a80hGUmZxs4DyWX8X1snUGBDhtFu7y+/JEhZ7AyvJKoHoKfb/aJzPpY9X2E5jvVfHyJBdBmWzyeGaq6zzZthc7vzs4+qqc8GzsPTpPsrzG81OTN4s98KfKJzPROdio2rhk7xtBXqqcY3ueApKmyVeTA71v7dmb+Pretrb1i1smtAAf+9oG1h4J5rq8k3GPyJ79596MP7TXH5cH6vvj4+PpfXv8v33Q1qXTYzhf/wM=);lineShape=1;" vertex="1" parent="1">
                    <mxGeometry x="277.22755575741064" y="535.7511339637387" width="8.629572321835413" height="10.532813022866295" as="geometry"/>
                </mxCell>
                <mxCell id="119" value="" style="shape=stencil(rZzZjhzHEUW/Zl4LuS/PsvwfAkSZhGlSoCjb+ntFYpDdXTeqT0OG32aJrMollhs3Iust//Dbx59+/fCWwm/fv33954f/fPr5+8e3/Le3lD59+fjh26fv9tNb/vEt//DL128f/vHt6+9ffn7//defluT66V9f/72e8N/3cbUcLa1RKfzx/pd0lPc//P1d/vOnL2f5EkW+ZpSPReR7Afl8jCrys6J8OT8/H5HlY1X5CfLpGEnkE83/tn0P8gPk4zGHyGfa/3iUqfIN5MMxo8rTfILfnwLnW+bevgd52M8yjqDrrXBepR2jiXyD/Sn1KCrfA8hnv/+9g3zy+jZg/4vtv+rDBP3Jc2/Hli9HgPXmsdXxLh8jyLdjdpWH88p1m+tdPoE+ZPMnUeVpvaaO+vwM55XTEYLIk7/K4ai63grnm8Yxp8h32J/Ut/lt+XoE2B/7d5sin0nejl+f38Be7u74Lj9p/vFI5/Nq+0Au5eM8ZhP5DvOP4+hn/e9HgvONXc+rY7yI7ShnexlHhvONdbu/LT+PAPsTy57uXZ72Mya19xjRgO3fsmB7BEWwGI501qDIIWaqx7U1FXBZXT2E7VmDI3Mexc6kw3zaEUS+bx98HZJ2QLzJW8yhkLQN5IYgwpEpxBxBEErcPuzapRzlvJ8LooCKJo0wyyWSSbrn12PA/qetXzf5jiHbFE6eb/sJ+uA8hPlUOi8f8QxDgUmGo0kELseA/Q+6PxbTBlhY0AhjMXPi85NEDFsR7KezR8MUAfTN5iPy9Yi4nxrBOoa8sLXlJj9Rn6Pao2FMdOnbwd7kDTKh/mjEM39CIXgH0Ju8rRfl89ne69ge6Ym86Ftj/3A7zZv8K/9Qz/vfTP8JEh9BIrD5B4K4Rz3vZ6vbop/4T0GIre83PpEX+20D40XTDLLN/YQn8SWfz7dHhBxdEVm3EwT5cTR5fsZ4NDW+9IL+wQKwKGhvO4Q8G9DPGtf7EQmkRA1hfWyn8Qx1iE70iTDRIEM7K8UIGMTizSffBiRMBAwEhPOURkbkbSignO1m2DtpSgYtBfrdoMW14Ye967cBBkYJTLtQOQaq6vIVsui58ekzeN/OU5oBjdmsLZ3x94ycEHRNoGfiAS4DnXlb1LW/ixpgZ0EOwHI+QRSzsgeuDoS3I4KLyd3tUsM0ztLuIufQkScpFiOjDhg0oChMmwNhYGluW82zEdUw1M3MiamHxfkcdQBFHgv0M+iATKGkHTW5NxB9Nve5Pgygk7ZYrFMaSMi0Wz7/MKDCGixaipuxk56UPwW36L4h5fWArByaaSsZUK/OpiuyaBY+ijNRWvQImrRM5iXNuQsKM79EKGxUjUCTYdjoykSZMyYq0FxvP+/SYCcwo3JXKwLBSU/nyCwoEhSeLje1jaZczc51CB3SeUpte6HbgIoEn+mmnIPBK4pAy20JHp6Yr9kAOYfWMLAvkxeEnjEDtgFCihukJ2dsA5qwagOhgw3okpTUbVJPB5xVw5xn4DUI1qgBYe5yvecBhXH6dETQCjE0YGzq/DagIPyxAQKwSkI215RP2e7AU2oKQzMjMjOgKfWMhmHXTFQHMOM9s6tQJIyiC39JySSgbzW/JDUly3GIATBPGqVI1zDlNk/azwdnwJQ4HnPGElAWLUZvcOnAPc+/HlDclMKmkp9FIOGF4uQYl1RbLaMg5RuulmY5Cx1cd1DasiJi+7urjsW6663XA5qWuyxRI+9tua3w8ZYKEntm0WBkHUCOzOCPVEwXoU2IzMUHy38JCVj4EAbHMmyCP82F3YlFvpY0KxuYHDe35Ns5PkO5QYscxAcsAuyvFGksNmnwYYYo+6IggYyatEhcNhC6lvcULM7HAlnVIi5F59I080lcVK7OGXFFITs73jnBtXxSyjAifVMcQRSRULJsdZznH3ZIeSpfVZ7y7an6HDa/9Ey+63wqFXGnrjfg/lzJJ9CfNf8g8mRfSz6LPNnvkm8qTwzJ1CQ1oAtd8npexNjmqRRp2FXjZ/oW9HxR/4OWyAJCoiWv8yd/dfV8Ys2u5k/2frU/yGhd7H9jfRBg8NoeVX8Inl3pJ1YgLvSfmrSu7AubKq7sl+fj/AM1AeSpKD9wU8uFf/ur/vOVPTr/8H+UN31268WKdVL8EF41OVUXX8g/VGXhIia7xWVlkZuihitBv2pKk5Jj2g71KT5xTWagz9VxswUrsgtfNZHH+XRF6dzE41lQ5gMX/jw//1ZLeYZvBR8OrIMs/CwEJcZHA+iSZEzsALAMQPyVAXqiurtbsKUMlH72pDyaJSWYuhWXlOTdyfosE6tRB1DZ13I96Yy11I1anVZJT6yy4i6tfFU6hRoPSFo2sQSXHMu9pPeQQpPl3wnVh6yeoP1oyo0vLM3MRBVm4pbBPuM+JBisFkSwhnkDPw/sCjV8zKjpwyrKgfLNtPnR24CJLRnTObDMVcHpPHzOCFlWwe286NUZShRr17aG/IK57mpxd1j1jG3URpqIjQc2QMLyKsrRtk5tVShcd1y8snSzcpFvOuRisa4y6yupek3I1MUQtGN2Udc8J9mmOjB9Wly365AhfLH4+vMbWkHAtqhr6anpmLHYUQsZ2AN2Va7qrbRcZMy5ln5LzK2YJJgFadvIwCg9XaVycCvpKtGd3zC42X+6IvaoTJk6db0Twc+8sTJjE1P34airyYtetK8M4P6G+ybeBhQmNIdWl2bF9GWVZ109l6repmpJptQRgPbgejQ6VltXEVv6GwbukhnkcKV+WvQqxLtmgkok4lWpn+qIq5kg6wCiZWvWc3hwhtcj4i5XPb4C5lRc4eRe+HuWKmW3asz1irq+Fca4M0XB+sDGq9X74hpNCJOt7hqnroX4kboLAA8GQUdtYMQPwIw+ahPuQjjUC+ZKxuYFiMNYkE3OIfPNjeaaljjlWL1gMiCi21isuJxDQHiy+tmkxW5ikFvgXEJQ597I4SonL+6HdLW4wegkVk1qBhcfVlYlb0gIRGPW/h0LGeTJLJWU5rERsOFn3fk4v6FP9EsxuCaNzo0mSjhbekqMp+u4sBhGDL6HV5wzdSUwO1+77Gr/PWIy7cqgFiGpF6I6xDrwWk9Vwq11hOnulmyzxIEYQ92fVrDYndVqWsb9T4rbWkJ/mvRWVePie9JYXrkxMKozrR2zyajzqRWvBUc3H75G6QjYdS8X9icoyVAmtpYF7bQsHV1K0Gy7VPQoriBSuGLqcsIS0CcGd2t3vFivIITcEG4Gd2u64J2zoGEmJ6yIBM2aM1dAo97qTOOFfor+mAcjfUs7CbrJcwd00lRweQy8gyL+YVk0VYC0a/B+K+iJfxMgESfuT1UWz4ACfjZgW98DEUmtOe6WeGyY7ndHBxfs6R3aDht5/2NQ8GcggZpVo7vXf//LM9AhHGHkopGtUHzKRDga3b3Lga1Iq7VJ7qAgo7hu+goIQtJoQUvpCkWuIjoai1OIFTOkAfPlTWuJYdjr6O+Zssqlqj6uIIRb96rcTXqSH77ph25Cr5v02pRDPbaWkglQzwxp3JcAMoaA7NKljJDMf8kgc1G86U13/rLF+hJDVnkuEledD0GmcvEljwT7WZKSrPlVk5P7EgbZy/rShvtSy4siscpTF3gZirn5yzHF5TAJ7WV96US/TINF4uDqRNi0tL7UIhiCr75EbTpJ2PRQk/Z/R75Gn3yTGRVla1YMFDHlXLeApVEUIZkvunMJ1+T1OwB896goXRixaam6e7WRL0MVzckjFtGr4yFezr/r88mfVNcwHTE+VsfwRrxvUN0N0IgpwNXz6Rp9deWOhBC0ugp9QoK6us5nvptQ3dXMhF8W+R++pPVC3n64f7brl0+fP79/9evx//qZL/vT+yfC8o9/Ag==);lineShape=1;" vertex="1" parent="1">
                    <mxGeometry x="208.9699376183308" y="637.6888568459367" width="113.77200536562883" height="43.68491262327869" as="geometry"/>
                </mxCell>
                <mxCell id="125" value="key = 2" style="text;html=1;align=center;verticalAlign=middle;resizable=0;points=[];autosize=1;strokeColor=none;fillColor=none;" vertex="1" parent="1">
                    <mxGeometry x="330" y="644.53" width="60" height="30" as="geometry"/>
                </mxCell>
                <mxCell id="132" value="" style="shape=stencil(lVdJcttADHwNr6jBYNaz4/zDVZYjVRTJJctZfh8wDBkBDpv2jaK6MVgbw0HuXvYPz7shhpfr5fx19+PweN0P8mmI8XDa7y6Hqz4Ncj/I3dP5svtyOb+eHqffzw8jcnz6dv4+Wvg58QLVOJJi+DW9qI1a/vPm84Q/Hk43+E6pG3zp1AGeK1W2hEhB1gmxUmuGkIUEnCDqkiWkRBLXCZmpWoJkYuBSUXuWEBNlQKidog2aNYYAssrUbFoztQTwekAx+EAB2X9TtgBTpPhi8Uy5Q3yz/giVBvHd4gtJBV0UlvhmQp9r8s4DOFLCGXIRsDYFJlTrkbb636q/swbcKGNCrJ4AZ7NTyJ4AXVrsLYRCBZ3Q/DSzzgaYBCUUqy/McxpWCfaERgl7VGySMmVUNo3AViHOnbKG764IW23BftJ4oyvY47H9Is6fgPzXvmYfL7bfxeUzAaX4z2Q2EuxQt2I6dgTOUHeDlijiMahulMuWemVHaMRYXSR9cDI/SOB5q96snArSOq4c23cSZ/lYW2rJNnYSmCVdm04hc5qjWlvMLq1FZvlYW/1u1qo2K3BJFbdZdWl6uUB7zYtLD7C7w7yFl7IFvGgDFRvyOH8gguCLMOoHqJqubRdA3bDPzn6BcqTRObxQBzVWvPNHLwowoV4sFn1dw1s1aoUS9Ifd9kgUYH7i2wYCcxnma8qCDxv+ZNtAOqfoMvvR6/g2Xh/+3f2fDsfj9Olw+7//VtBX03eG3P8G);lineShape=1;" vertex="1" parent="1">
                    <mxGeometry x="418.6477736633874" y="660.9784783729554" width="21.858881920493882" height="1.6167861224732516" as="geometry"/>
                </mxCell>
                <mxCell id="134" value="" style="shape=stencil(7VrJctw2FPyauaKwL2fH+Q9XWY6mokguWdn+Po1MgR40OM1Rjq7cJA4f+fCW7n4AT+HDt8dPXx9O3n57e3359eHP8+e3x1P46eT9+fnx4fX8hr9O4eMpfPjy8vrwy+vL78+fL/9//dTv7H/99vJHf8JfFztnjfPdytu/L1eiqfbfCz9f7n86P9P9bbofV3yVBqHOBs3kJg3S7JFvxmuXcp4MQjFFu1RpzdFkZeCMDZNBwhUnDRwZZJO1gZ1dysWEINfQ4mRQgvFZL3qOUmkmKJdg4CaDmvSi4dK8huZHoG8azKXRovHlPYlryeSki6/MBtk0YYDSnKPaqnGi9qrJ9Pw2Erl7fzEp8v1ZrDgbz91mjRUOpfHrvQbBlPQej/yo4ztX7EaC7ozoWkQ6Y9ZEyoAuCTuK/s6aA97NbVPzqJEb91u6H3gm10sJQx8ngUV2RGMDijg8vJEv8icV02Q9BLrfmSDgOpqyYGkRwJWNnfMVqgmyY4g+gjdRd+TsP55gNZBSC7s6CGjfIHNFALyLygB+pjdYGSKsMMzs4ZBFkQOEMFHXBxPFG2IaOd0MomnCIHnTaNF5QNl+mh3XXQ+rWEOuzE8o9SLopiSuDNS6IrTqWOp08BOZbuj9Ga0Br4pjAVXET718JWUu7R+iVEdANz8XUwS+iMzVZtwcprhB/r6BZ5diGYHbT0Tk+k520NZ+qhEmMggDxferDwJwTgRATLKgH5iyoSRcEmtAQxDt5KBbrg0ttBlsq9o3CKbNLZebVNpdi8xIX7xm5sQaskA+qOqrpswulSq5DahCOIPcS/IPrPBykrUEl1g4AxcEHfrI/QC+UvwQFoIGYSUR1j4bkAEaSEQp+jF9XBkkkYfomBPxCJUHFF+hFnXGK0ZBEOew4hFRuNQZhQyKlAH9DXO1hg2fb65h7umghU9c4Bs86ZQBpg96g5MzVVy0THCyWmMelXNlIGupMhgHnenYRjFf8YMahgG9du7pAL0iMg0DdglOCn6AS9wPVkdpI/6ralXIB76xSwMpDQf0pjEJBgoq8TOFtRsIZofHNPZ0l9Qa7Ij61aIV7XZCWcJqlQHCStsedcTtlkGmTEOMa5ghlYjic6paoaWXFlWiDy3qlxZNqvjiUt4HLfpegx5W0hpBDlghsF7KOnHQhHWVDsIlvwAZpIMKa99hIzUTTVQureLESTAGizJPF0mKvdTm4ktJN5DjKEHUqWpdsRVIFYRBiix/gOdR5AGSMBBqeEnsxZpIHddklKC//LxoxC2KPNTE4zrKUU0cDUBGxJ6GmNh/Qxwjz9Ubmlp046kJIKCQr294kEtazaBd2ky73/ftbs0PtOmDHpTjLjTkXBo+awkXWM1AjUeFGnkMt5tBlLq1b5yQgddbygt64w1N7XJjzCM1E4eo2zdIjBp9FlVviDzjo+OUusf8QAN1CnLadX4ZLZvc7oKBI/ROg1dv7dST1uj1q8B4K+Y7dwTXw4ODLccfYx+dVvD/PvqPto/OFaQPhxbqPDh9smPDc2tLfbwFf2h3RZ+fWd5nODigW84NDk4ALdPswRHjkq+DM0y78L4+JLW8qXdwCmuHKNga5uCYl3H36ByZyengnJqlWtAAx/jj5Rji+elOUkDgtVpZ+pEnQR2ZxJOmBqrMMlnfXpi9tDOVPw/QS62sIJAI4Uxj0PSSqxs//aAI/sO3EPp+/PH9w4sv56eny3cb17/zhxq4dPnII3z8Bw==);lineShape=1;" vertex="1" parent="1">
                    <mxGeometry x="439.0855152076135" y="659.4297280400848" width="6.017787046793632" height="5.563886726612041" as="geometry"/>
                </mxCell>
                <mxCell id="135" value="now u can do BS ka applications -&amp;gt;&amp;nbsp; ceil, floor, finding index" style="text;html=1;align=center;verticalAlign=middle;resizable=0;points=[];autosize=1;strokeColor=none;fillColor=none;" vertex="1" parent="1">
                    <mxGeometry x="445.09999999999997" y="644.53" width="340" height="30" as="geometry"/>
                </mxCell>
            </root>
        </mxGraphModel>
    </diagram>
</mxfile>